["note_on_60", "note_on_64", "note_on_67", "time_shift_240", "note_off_60", "note_off_64", "note_off_67", "time_shift_238", "note_off_34", "time_shift_26", "note_on_35", "note_on_67", "note_on_67", "time_shift_166", "note_off_42", "note_off_67", "note_off_67", "time_shift_26", "note_on_64", "note_on_67", "note_on_73", "note_on_84", "time_shift_83", "note_off_45", "note_off_64", "note_off_67", "time_shift_2", "note_on_55", "note_on_59", "note_on_62", "note_on_67", "note_on_71", "note_on_74", "time_shift_272", "note_off_31", "note_off_62", "note_off_62", "note_off_67", "time_shift_5", "note_off_71", "note_on_60", "note_on_62", "note_on_67", "time_shift_250", "note_off_60", "note_off_64", "time_shift_304", "note_on_55", "note_on_59", "note_on_62", "note_on_78", "note_on_96", "note_off_78", "time_shift_26", "note_on_100", "time_shift_56", "note_off_28", "note_off_60", "note_off_62", "time_shift_5", "note_on_71", "time_shift_22", "note_on_59", "note_on_59", "note_on_60", "note_on_59", "note_on_62", "note_on_64", "note_on_67", "time_shift_375", "note_off_28", "time_shift_123", "note_off_59", "note_off_64", "time_shift_5", "note_off_59", "note_off_64", "note_off_64", "note_off_67", "note_off_67", "note_off_66", "note_off_71", "time_shift_239", "note_on_42", "note_on_34", "note_on_55", "note_on_59", "note_on_59", "note_on_62", "note_on_62", "note_on_63", "note_on_66", "note_on_71", "note_on_78", "time_shift_98", "note_on_81", "time_shift_93", "note_off_47", "note_off_54", "time_shift_17", "note_on_28", "note_on_62", "time_shift_375", "note_off_78", "note_off_78", "time_shift_20", "note_off_62", "time_shift_6", "note_off_59", "note_off_66", "time_shift_94", "note_off_43", "time_shift_84", "note_on_59", "note_on_64", "note_on_67", "note_on_67", "note_on_71", "note_on_83", "note_on_38", "time_shift_251", "note_off_55", "note_off_55", "note_off_59", "note_off_59", "note_off_64", "note_off_64", "time_shift_6", "note_off_67", "note_off_67", "note_off_71", "note_off_88", "note_on_43", "note_on_59", "note_on_62", "note_on_64", "note_on_67", "note_on_67", "time_shift_5", "note_on_59", "note_on_67", "note_on_74", "time_shift_60", "note_off_67", "note_off_71", "note_off_76", "time_shift_12", "note_off_67", "time_shift_58", "note_on_62", "note_on_67", "note_on_67", "note_on_71", "note_on_74", "note_on_79", "note_on_83", "time_shift_244", "note_off_67", "time_shift_188", "note_off_76", "time_shift_171", "note_on_67", "note_on_71", "note_on_86", "note_on_86", "time_shift_55", "note_off_31", "note_off_62", "note_off_67", "note_on_50", "note_on_62", "note_on_67", "note_on_71", "time_shift_5", "note_off_71", "note_on_79", "time_shift_91", "note_off_66", "time_shift_22", "note_on_64", "time_shift_13", "note_off_72", "time_shift_32", "note_off_71", "note_off_72", "time_shift_65", "note_off_31", "note_on_74", "time_shift_166", "note_off_76", "time_shift_78", "note_on_55", "note_on_71", "note_on_71", "note_on_74", "note_on_79", "time_shift_71", "note_off_59", "time_shift_31", "note_off_62", "time_shift_10", "note_on_50", "note_off_79", "time_shift_173", "note_on_59", "note_on_64", "time_shift_67", "note_off_55", "note_off_56", "time_shift_5", "note_on_43", "time_shift_50", "note_off_71", "time_shift_229", "note_on_71", "time_shift_41", "note_off_43", "time_shift_5", "note_off_86", "time_shift_529", "note_off_76", "time_shift_35", "note_off_55", "note_off_67", "time_shift_20", "note_off_50", "time_shift_52", "note_on_33", "note_on_45", "time_shift_71", "note_off_45", "time_shift_66", "note_off_38", "note_off_45", "time_shift_72", "note_on_52", "note_on_52", "note_on_57", "note_on_62", "note_on_76", "time_shift_57", "note_on_57", "time_shift_5", "note_on_60", "note_on_64", "note_on_86", "note_on_83", "time_shift_13", "note_off_78", "note_off_76", "time_shift_91", "note_off_81", "note_off_81", "time_shift_57", "note_off_64", "note_off_64", "time_shift_47", "note_on_64", "time_shift_39", "note_off_52", "note_off_52", "time_shift_5", "note_off_64", "time_shift_5", "note_off_52", "note_off_61", "note_off_64", "time_shift_124", "note_off_45", "note_off_45", "note_off_76", "time_shift_5", "note_on_52", "note_on_57", "note_on_59", "note_on_62", "note_on_62", "note_on_66", "note_on_78", "time_shift_16", "note_off_59", "time_shift_8", "note_off_62", "note_off_62", "time_shift_30", "note_off_71", "time_shift_2", "note_off_62", "time_shift_66", "note_on_57", "note_on_60", "note_on_66", "note_on_69", "note_on_79", "time_shift_86", "note_off_76", "time_shift_20", "note_off_33", "note_off_52", "note_off_57", "note_off_62", "time_shift_32", "note_off_81", "time_shift_10", "note_on_38", "note_on_54", "note_on_54", "note_on_54", "note_on_62", "note_on_66", "note_on_74", "time_shift_236", "note_on_50", "note_on_54", "time_shift_30", "note_off_54", "note_off_62", "note_on_62", "note_on_71", "time_shift_219", "note_off_62", "note_off_66", "note_off_71", "note_on_64", "note_on_64", "note_on_86", "time_shift_49", "note_off_50", "note_off_57", "note_off_62", "note_off_64", "note_off_66", "note_on_91", "time_shift_72", "note_off_38", "time_shift_125", "note_on_40", "note_on_52", "note_on_56", "note_on_61", "note_on_64", "note_on_68", "note_on_88", "note_off_40", "time_shift_51", "note_off_52", "note_on_28", "note_on_76", "time_shift_184", "note_off_95", "time_shift_53", "note_on_55", "time_shift_194", "note_off_76", "time_shift_93", "note_on_68", "time_shift_226", "note_off_61", "note_off_71", "time_shift_62", "note_on_80", "time_shift_85", "note_off_80", "note_off_80", "time_shift_41", "note_off_59", "note_off_63", "time_shift_73", "note_off_64", "note_off_68", "time_shift_86", "note_off_51", "note_on_61", "note_on_69", "note_on_73", "time_shift_119", "note_off_59", "note_off_64", "note_off_73", "note_off_73", "time_shift_6", "note_on_58", "note_on_61", "note_on_61", "note_on_66", "note_on_80", "time_shift_35", "note_off_78", "time_shift_8", "note_off_61", "time_shift_99", "note_off_61", "time_shift_8", "note_on_51", "note_on_39", "note_off_61", "note_off_46", "note_off_51", "note_off_66", "time_shift_83", "note_on_47", "note_on_62", "note_on_66", "note_on_81", "time_shift_120", "note_off_42", "time_shift_11", "note_on_31", "time_shift_36", "note_off_78", "time_shift_39", "note_off_78", "time_shift_20", "note_on_83", "time_shift_41", "note_off_78", "time_shift_15", "note_off_66", "note_off_78", "time_shift_71", "note_on_79", "time_shift_80", "note_off_62", "note_on_90", "time_shift_71", "note_off_31", "time_shift_47", "note_on_69", "time_shift_90", "note_on_74", "time_shift_91", "note_off_47", "time_shift_22", "note_off_33", "time_shift_89", "note_off_67", "time_shift_62", "note_on_38", "note_on_50", "note_on_74", "time_shift_56", "note_off_38", "time_shift_53", "note_off_26", "note_on_76", "time_shift_129", "note_on_39", "time_shift_90", "time_shift_161", "time_shift_13", "note_off_59", "time_shift_6", "note_on_33", "note_on_35", "time_shift_24", "note_off_35", "time_shift_17", "note_off_86", "time_shift_87", "note_on_38", "time_shift_100", "note_off_81", "time_shift_168", "note_off_50", "time_shift_35", "note_off_38", "time_shift_212", "note_on_35", "time_shift_161", "note_off_35", "time_shift_39", "note_off_71", "time_shift_102", "note_off_68", "time_shift_92", "note_on_38", "note_on_66", "note_on_69", "note_on_74", "time_shift_35", "note_off_74", "time_shift_6", "note_on_26", "time_shift_76", "note_off_87", "time_shift_103", "note_off_69", "time_shift_56", "note_on_66", "note_on_69", "time_shift_86", "note_off_73", "time_shift_17", "note_off_66", "time_shift_6", "note_off_66", "time_shift_25", "note_off_40", "time_shift_2", "note_off_66", "note_off_69", "time_shift_11", "note_on_26", "note_on_26", "note_on_62", "note_on_86", "time_shift_94", "note_off_26", "time_shift_26", "note_off_26", "time_shift_31", "note_on_66", "time_shift_25", "note_off_66", "time_shift_8", "note_off_65", "note_on_66", "time_shift_33", "note_off_33", "time_shift_18", "note_off_66", "time_shift_140", "note_on_62", "note_on_62", "note_on_62", "note_on_69", "time_shift_71", "note_off_50", "time_shift_3", "note_off_62", "time_shift_12", "note_off_62", "note_off_66", "time_shift_29", "note_off_67", "time_shift_4", "note_on_65", "time_shift_4", "note_on_31", "note_on_70", "time_shift_6", "note_on_62", "note_on_65", "time_shift_17", "note_on_62", "time_shift_15", "note_on_72", "time_shift_4", "note_on_62", "time_shift_130", "note_off_62", "time_shift_8", "note_on_74", "time_shift_33", "note_off_62", "time_shift_4", "note_off_62", "note_off_65", "note_off_72", "time_shift_36", "note_off_36", "time_shift_37", "note_off_73", "time_shift_74", "note_on_77", "time_shift_74", "note_on_34", "note_on_85", "note_on_85", "time_shift_250", "note_off_61", "time_shift_150", "note_on_34", "note_on_62", "note_on_65", "note_on_65", "note_on_70", "note_on_70", "time_shift_124", "note_off_34", "time_shift_34", "note_on_34", "note_on_75", "time_shift_14", "note_off_58", "time_shift_117", "note_off_65", "note_on_52", "time_shift_9", "note_off_65", "note_off_84", "time_shift_92", "note_off_34", "time_shift_141", "note_off_70", "time_shift_27", "note_off_70", "time_shift_6", "note_off_34", "time_shift_24", "note_on_38", "note_on_62", "note_on_65", "note_on_65", "note_on_77", "time_shift_393", "note_off_65", "time_shift_9", "note_off_77", "time_shift_13", "note_off_65", "time_shift_28", "note_off_81", "time_shift_14", "note_off_65", "time_shift_117", "note_off_62", "time_shift_35", "note_on_69", "time_shift_12", "note_on_55", "time_shift_12", "note_on_75", "time_shift_31", "note_off_35", "time_shift_39", "note_off_58", "time_shift_54", "note_on_38", "time_shift_4", "note_off_62", "time_shift_203", "note_off_38", "time_shift_40", "note_on_70", "time_shift_4", "note_off_61", "time_shift_49", "note_off_68", "time_shift_19", "note_off_70", "time_shift_59", "note_on_58", "note_on_67", "time_shift_9", "note_on_36", "note_on_62", "time_shift_9", "note_on_65", "time_shift_111", "note_off_39", "time_shift_55", "note_off_70", "time_shift_25", "note_off_67", "note_off_67", "time_shift_4", "note_on_34", "note_on_65", "note_on_65", "note_on_70", "time_shift_77", "note_off_36", "time_shift_1", "note_on_34", "time_shift_16", "note_off_58", "time_shift_17", "note_on_39", "time_shift_5", "note_on_38", "time_shift_209", "note_off_65", "time_shift_4", "note_on_67", "time_shift_312", "note_off_70", "time_shift_31", "note_off_46", "time_shift_31", "note_on_57", "time_shift_59", "note_on_61", "time_shift_1", "note_off_31", "time_shift_217", "note_on_61", "time_shift_4", "note_off_56", "note_off_61", "note_off_67", "time_shift_30", "note_off_64", "note_off_58", "note_off_62", "time_shift_13", "note_on_64", "time_shift_217", "note_off_61", "time_shift_10", "note_on_67", "note_on_72", "time_shift_14", "note_on_73", "time_shift_138", "note_on_58", "note_on_65", "time_shift_5", "note_on_33", "note_on_58", "time_shift_43", "note_off_58", "note_off_61", "note_off_67", "note_on_62", "note_on_65", "note_on_68", "note_on_69", "time_shift_54", "note_off_33", "time_shift_17", "note_on_34", "time_shift_91", "note_off_34", "note_on_39", "time_shift_420", "note_off_46", "note_on_69", "time_shift_243", "note_on_37", "time_shift_9", "note_off_73", "time_shift_32", "note_off_65", "note_off_69", "note_on_88", "time_shift_665", "note_on_61", "note_on_63", "time_shift_24", "note_on_70", "time_shift_137", "note_off_63", "time_shift_140", "note_off_61", "note_off_66", "note_off_70", "note_off_70", "time_shift_12", "note_off_34", "time_shift_13", "note_on_61", "note_on_65", "note_on_70", "note_on_75", "time_shift_94", "note_off_70", "time_shift_8", "note_on_61", "time_shift_4", "time_shift_163", "note_off_61", "note_on_73", "time_shift_9", "note_on_32", "note_on_61", "note_on_32", "time_shift_4", "note_on_61", "note_on_68", "time_shift_215", "note_off_37", "note_off_56", "note_on_32", "note_on_49", "time_shift_67", "note_off_56", "time_shift_4", "note_off_61", "time_shift_24", "note_off_61", "time_shift_66", "note_off_44", "time_shift_28", "note_off_49", "time_shift_95", "note_off_25", "note_on_70", "time_shift_53", "note_off_37", "time_shift_93", "note_off_65", "time_shift_4", "note_on_61", "note_on_24", "note_on_39", "note_on_63", "note_on_63", "time_shift_4", "note_on_28", "note_on_39", "note_on_63", "time_shift_4", "note_on_60", "time_shift_4", "note_on_68", "time_shift_61", "note_on_63", "time_shift_9", "note_off_39", "time_shift_9", "note_off_55", "note_off_60", "time_shift_12", "note_off_65", "time_shift_19", "note_off_32", "note_off_84", "time_shift_2", "note_on_37", "note_on_37", "note_on_37", "note_on_72", "note_on_89", "time_shift_9", "note_off_34", "time_shift_69", "note_off_44", "time_shift_36", "note_off_61", "note_off_63", "time_shift_6", "note_off_37", "time_shift_19", "note_on_56", "note_on_63", "time_shift_9", "note_on_63", "time_shift_15", "note_on_32", "note_on_44", "time_shift_12", "note_off_70", "note_on_75", "note_on_75", "note_on_75", "time_shift_95", "note_off_44", "time_shift_37", "note_on_44", "time_shift_9", "note_off_44", "note_off_69", "time_shift_243", "note_off_72", "time_shift_7", "note_off_32", "time_shift_33", "note_on_32", "note_on_44", "note_on_68", "note_on_80", "note_on_87", "note_on_75", "time_shift_9", "note_off_65", "note_off_63", "note_off_68", "note_off_72", "time_shift_17", "note_off_32", "note_off_44", "note_off_66", "note_off_73", "time_shift_7", "note_off_68", "time_shift_12", "note_on_32", "note_on_44", "note_on_68", "note_on_75", "time_shift_88", "note_off_51", "time_shift_3", "note_on_39", "time_shift_9", "note_off_44", "note_off_51", "time_shift_96", "note_off_40", "note_on_37", "note_on_37", "note_on_37", "note_on_56", "note_on_65", "note_on_77", "time_shift_161", "note_off_37", "note_off_68", "time_shift_9", "note_on_44", "note_on_68", "note_on_68", "note_on_75", "note_off_61", "note_off_68", "note_off_76", "note_off_80", "time_shift_59", "note_off_32", "note_off_44", "time_shift_76", "note_on_32", "note_on_56", "note_on_59", "note_on_71", "time_shift_12", "note_off_68", "time_shift_39", "note_on_32", "time_shift_495", "note_off_32", "time_shift_12", "note_off_44", "time_shift_17", "note_on_32", "note_on_40", "note_on_56", "note_on_78", "time_shift_306", "note_off_92", "time_shift_164", "note_off_44", "time_shift_56", "note_off_40", "note_off_56", "note_off_63", "note_off_68", "note_off_68", "time_shift_3", "note_on_32", "note_on_32", "note_on_32", "note_on_56", "note_on_63", "note_on_68", "note_on_68", "note_on_75", "time_shift_215", "note_off_44", "note_off_44", "note_on_63", "note_on_76", "time_shift_115", "note_off_68", "time_shift_12", "note_off_32", "note_on_32", "note_on_32", "note_on_32", "note_on_56", "note_on_63", "note_on_75", "time_shift_228", "note_off_56", "time_shift_272", "note_off_28", "note_off_63", "time_shift_230", "note_on_32", "note_on_56", "note_on_44", "note_on_32", "note_off_32", "note_off_32", "note_off_32", "note_off_44", "note_off_56", "time_shift_11", "note_off_44", "note_off_56", "note_on_32", "note_on_44", "note_on_51", "note_on_60", "note_on_63", "note_on_63", "note_on_67", "note_on_67", "time_shift_340", "note_off_32", "time_shift_69", "note_off_54", "time_shift_119", "note_off_63", "time_shift_14", "note_off_63", "note_off_67", "time_shift_24", "note_off_32", "note_off_37", "note_on_32", "note_off_32", "note_on_58", "note_on_70", "time_shift_30", "note_on_58", "note_on_62", "time_shift_17", "note_off_58", "time_shift_158", "note_on_32", "time_shift_196", "note_off_25", "note_off_58", "time_shift_33", "note_on_58", "time_shift_50", "note_on_62", "time_shift_29", "note_on_39", "time_shift_231", "note_off_27", "time_shift_382", "time_shift_124", "note_off_60", "time_shift_54", "note_on_29", "time_shift_9", "note_on_29", "note_on_57", "note_on_60", "note_on_68", "time_shift_122", "note_on_62", "time_shift_96", "note_on_29", "note_on_60", "time_shift_203", "note_off_62", "time_shift_13", "note_off_63", "time_shift_37", "note_off_65", "time_shift_56", "note_on_77", "time_shift_62", "note_off_29", "note_on_29", "note_on_53", "note_on_65", "note_on_84", "time_shift_48", "note_off_65", "note_off_73", "time_shift_53", "note_off_89", "time_shift_26", "note_on_74", "time_shift_278", "note_off_29", "time_shift_11", "note_off_29", "time_shift_68", "note_on_29", "time_shift_96", "note_off_89", "time_shift_13", "note_on_34", "time_shift_11", "note_on_80", "time_shift_65", "note_off_29", "time_shift_105", "note_on_41", "time_shift_5", "note_on_35", "note_on_65", "time_shift_62", "note_off_65", "time_shift_11", "note_off_29", "time_shift_298", "note_on_38", "time_shift_62", "note_off_70", "time_shift_33", "note_off_65", "time_shift_39", "note_off_60", "time_shift_26", "note_on_65", "note_on_72", "time_shift_90", "note_off_72", "note_on_73", "time_shift_17", "note_off_84", "time_shift_44", "note_off_77", "time_shift_11", "note_off_74", "time_shift_12", "note_on_41", "time_shift_79", "note_off_69", "time_shift_73", "note_on_72", "note_on_75", "time_shift_22", "note_off_80", "time_shift_171", "note_on_77", "note_on_77", "time_shift_12", "note_off_77", "time_shift_10", "note_off_72", "time_shift_31", "note_off_77", "note_off_77", "time_shift_31", "note_off_77", "time_shift_47", "note_on_53", "time_shift_1", "note_off_80", "time_shift_142", "note_on_80", "note_on_80", "time_shift_11", "note_on_65", "time_shift_1", "note_on_69", "time_shift_156", "note_off_65", "note_off_72", "note_off_74", "time_shift_15", "note_off_65", "note_off_69", "time_shift_23", "note_off_57", "time_shift_153", "note_off_56", "time_shift_3", "note_off_63", "time_shift_1", "note_off_29", "note_on_63", "time_shift_11", "note_on_44", "note_on_45", "note_on_41", "note_on_53", "note_on_53", "note_on_56", "note_on_62", "note_on_65", "note_on_73", "time_shift_2", "note_off_41", "time_shift_40", "note_off_41", "time_shift_17", "note_off_65", "time_shift_7", "note_off_53", "note_off_53", "time_shift_16", "note_off_65", "time_shift_3", "note_off_53", "time_shift_12", "note_off_65", "time_shift_99", "note_off_65", "time_shift_52", "note_on_80", "time_shift_12", "note_on_29", "note_on_41", "time_shift_1000", "note_off_78", "time_shift_7", "note_on_80", "time_shift_11", "note_off_80", "time_shift_10", "note_off_79", "time_shift_41", "note_on_28", "note_on_44", "note_on_50", "note_on_44", "note_on_56", "time_shift_2", "note_on_71", "note_on_68", "note_on_74", "note_on_75", "time_shift_39", "note_off_44", "note_off_56", "time_shift_24", "note_off_44", "note_off_56", "note_off_59", "time_shift_29", "note_off_72", "time_shift_132", "note_on_44", "time_shift_21", "note_off_44", "note_on_47", "note_on_60", "note_on_63", "note_on_72", "note_on_75", "time_shift_69", "note_off_39", "time_shift_287", "note_off_60", "time_shift_4", "note_off_63", "time_shift_1", "note_off_63", "time_shift_1", "note_off_60", "note_off_72", "note_off_75", "time_shift_19", "note_on_38", "time_shift_2", "note_on_72", "time_shift_3", "note_off_81", "note_on_57", "time_shift_25", "note_on_42", "time_shift_79", "note_off_52", "time_shift_102", "note_off_72", "time_shift_499", "note_on_74", "time_shift_18", "note_off_41", "time_shift_47", "note_on_52", "time_shift_9", "note_off_57", "time_shift_71", "note_off_44", "time_shift_2", "note_on_56", "time_shift_4", "note_on_32", "time_shift_100", "note_off_51", "time_shift_41", "note_on_64", "time_shift_85", "note_off_63", "time_shift_18", "note_on_40", "time_shift_84", "note_off_40", "time_shift_57", "note_on_41", "time_shift_68", "note_off_28", "time_shift_2", "note_off_52", "time_shift_5", "note_off_64", "time_shift_12", "note_on_59", "time_shift_1", "note_on_32", "note_off_66", "time_shift_91", "note_on_28", "note_on_60", "time_shift_1", "note_off_59", "note_off_63", "time_shift_8", "note_off_49", "time_shift_21", "note_off_44", "note_off_59", "time_shift_35", "note_on_51", "time_shift_47", "note_off_44", "time_shift_55", "note_on_39", "note_on_39", "note_on_68", "time_shift_24", "note_off_39", "time_shift_24", "note_on_32", "note_on_39", "note_on_64", "time_shift_31", "note_off_44", "time_shift_29", "note_on_29", "time_shift_44", "note_off_44", "time_shift_26", "note_off_41", "time_shift_66", "note_on_32", "time_shift_108", "note_off_32", "time_shift_9", "note_on_32", "time_shift_16", "note_off_44", "note_off_72", "time_shift_24", "note_on_32", "time_shift_2", "note_on_32", "note_on_44", "note_on_63", "note_on_68", "time_shift_3", "note_on_63", "time_shift_105", "note_off_51", "time_shift_80", "note_off_32", "note_off_68", "time_shift_193", "note_on_32", "note_off_48", "time_shift_20", "note_off_41", "time_shift_4", "note_on_32", "note_on_25", "time_shift_151", "note_off_32", "note_on_83", "time_shift_12", "note_on_32", "note_on_44", "note_on_44", "note_on_61", "note_on_68", "note_on_72", "note_on_68", "note_on_92", "time_shift_7", "note_off_44", "time_shift_64", "note_off_32", "time_shift_33", "note_off_92", "time_shift_319", "note_off_73", "time_shift_18", "note_off_68", "time_shift_14", "note_off_80", "time_shift_29", "note_on_32", "time_shift_18", "note_on_68", "time_shift_28", "note_on_61", "time_shift_116", "note_off_61", "time_shift_29", "note_off_44", "time_shift_9", "note_on_32", "time_shift_545", "note_off_32", "note_off_44", "time_shift_38", "note_on_32", "note_on_36", "time_shift_192", "note_on_63", "time_shift_13", "note_on_68", "time_shift_19", "note_off_77", "time_shift_15", "note_off_75", "time_shift_1", "note_off_56", "note_off_66", "time_shift_149", "note_off_32", "time_shift_50", "note_off_73", "time_shift_169", "note_on_33", "note_on_61", "note_on_65", "note_on_69", "note_on_64", "time_shift_1", "note_on_66", "time_shift_80", "note_off_61", "time_shift_568", "note_on_24", "time_shift_129", "note_off_69", "time_shift_13", "note_on_65", "time_shift_37", "note_off_27", "note_off_45", "time_shift_156", "note_off_40", "time_shift_14", "note_off_67", "time_shift_17", "note_off_63", "time_shift_42", "note_off_57", "time_shift_60", "note_on_61", "time_shift_9", "note_off_33", "time_shift_33", "note_on_28", "note_on_39", "note_on_63", "note_on_66", "time_shift_28", "note_on_83", "time_shift_133", "note_on_85", "time_shift_109", "note_off_56", "time_shift_84", "note_off_63", "time_shift_13", "note_off_63", "time_shift_16", "note_on_54", "time_shift_9", "note_off_57", "time_shift_409", "note_on_58", "time_shift_24", "note_off_54", "time_shift_16", "note_on_68", "time_shift_4", "note_off_63", "time_shift_6", "note_on_63", "time_shift_13", "note_on_63", "note_on_80", "time_shift_45", "note_off_78", "time_shift_198", "note_on_63", "time_shift_86", "note_off_63", "time_shift_29", "note_off_59", "time_shift_28", "note_on_73", "time_shift_153", "note_off_73", "time_shift_25", "note_on_70", "time_shift_30", "note_on_58", "time_shift_33", "note_off_39", "time_shift_42", "note_on_69", "time_shift_279", "note_off_70", "time_shift_46", "note_off_61", "time_shift_19", "note_on_39", "note_on_58", "note_on_63", "time_shift_90", "note_off_66", "time_shift_23", "note_off_70", "time_shift_62", "note_on_39", "time_shift_189", "note_off_27", "time_shift_62", "note_on_39", "time_shift_21", "note_off_39", "time_shift_8", "note_off_51", "time_shift_58", "note_off_82", "time_shift_1", "note_on_39", "note_on_63", "time_shift_13", "note_on_67", "time_shift_213", "note_off_39", "time_shift_253", "note_on_39", "time_shift_308", "note_off_39", "note_on_37", "note_on_75", "note_on_82", "time_shift_128", "note_off_39", "time_shift_137", "note_off_87", "time_shift_33", "note_off_73", "time_shift_37", "note_on_68", "time_shift_6", "note_off_76", "note_on_68", "time_shift_3", "note_on_49", "time_shift_59", "note_off_68", "time_shift_44", "note_off_49", "time_shift_100", "note_off_27", "time_shift_38", "note_on_51", "time_shift_184", "note_off_75", "time_shift_15", "note_off_39", "time_shift_72", "note_off_37", "note_off_57", "note_off_63", "time_shift_12", "note_on_37", "note_on_49", "note_on_60", "note_on_63", "time_shift_232", "note_off_60", "time_shift_39", "note_off_44", "time_shift_387", "note_off_32", "time_shift_81", "note_on_32", "time_shift_1", "note_off_63", "time_shift_2", "note_off_60", "note_off_63", "time_shift_23", "time_shift_481", "time_shift_132", "note_on_60", "note_on_75", "time_shift_9", "note_on_63", "note_on_75", "time_shift_8", "note_off_32", "note_off_32", "note_off_72", "time_shift_3", "note_off_60", "time_shift_163", "note_on_75", "time_shift_70", "note_off_63", "time_shift_21", "note_off_63", "time_shift_13", "note_on_75", "time_shift_21", "note_on_32", "note_on_39", "note_on_60", "note_on_63", "note_on_63", "time_shift_84", "note_off_32", "time_shift_19", "note_off_63", "note_off_67", "time_shift_11", "note_off_63", "time_shift_9", "note_on_41", "time_shift_145", "note_on_68", "time_shift_161", "note_off_56", "time_shift_19", "note_on_80", "time_shift_61", "note_on_37", "note_on_56", "time_shift_150", "note_off_56", "time_shift_11", "note_off_92", "time_shift_237", "note_on_56", "note_on_61", "time_shift_17", "note_off_44", "time_shift_376", "time_shift_193", "note_off_56", "time_shift_328", "note_off_63", "time_shift_23", "note_on_39", "note_on_61", "note_on_61", "note_on_65", "note_on_65", "time_shift_61", "note_off_39", "note_off_60", "time_shift_18", "note_off_65", "time_shift_80", "note_off_56", "time_shift_18", "note_off_49", "note_off_60", "note_off_61", "note_off_65", "time_shift_41", "note_off_60", "time_shift_143", "note_on_31", "time_shift_444", "note_on_55", "note_on_55", "note_on_61", "note_on_61", "time_shift_4", "note_on_67", "note_on_74", "time_shift_479", "note_off_38", "time_shift_27", "note_off_55", "note_off_55", "note_off_58", "time_shift_62", "note_off_65", "time_shift_54", "note_off_58", "time_shift_27", "note_off_63", "time_shift_79", "note_on_39", "note_on_58", "note_on_61", "note_on_61", "note_on_63", "note_on_63", "note_on_66", "note_on_66", "time_shift_5", "note_off_32", "time_shift_451", "note_on_28", "note_on_28", "note_on_63", "time_shift_80", "note_off_28", "note_off_35", "note_off_63", "note_off_63", "time_shift_10", "note_on_35", "note_on_59", "note_on_63", "time_shift_53", "note_off_40", "note_off_59", "note_off_63", "time_shift_35", "note_on_32", "note_on_44", "note_on_56", "note_on_60", "note_on_63", "note_on_68", "time_shift_93", "note_off_36", "note_off_56", "time_shift_26", "note_off_56", "note_off_59", "note_off_63", "note_off_68", "note_off_72", "time_shift_68", "note_on_32", "note_on_44", "note_on_56", "note_on_56", "note_on_64", "note_on_63", "note_on_68", "time_shift_1000", "time_shift_294", "note_on_68", "time_shift_46", "note_off_44", "time_shift_13", "note_off_68", "time_shift_57", "note_off_44", "time_shift_35", "note_off_44", "time_shift_23", "note_on_32", "note_on_32", "note_on_37", "note_on_44", "time_shift_84", "note_off_32", "time_shift_7", "note_off_32", "note_off_44", "note_off_56", "note_off_56", "note_off_61", "note_off_63", "note_off_68", "time_shift_142", "note_off_44", "note_off_60", "note_off_63", "note_off_68", "note_off_68", "time_shift_8", "time_shift_307", "note_on_32", "note_on_44", "note_on_44", "note_on_44", "note_on_51", "note_on_56", "note_on_59", "note_on_59", "note_on_64", "note_on_68", "note_on_68", "note_on_68", "note_on_80", "time_shift_4", "note_off_32", "time_shift_13", "note_off_44", "note_on_32", "time_shift_92", "note_off_32", "note_off_32", "note_off_56", "note_off_59", "time_shift_9", "note_on_37", "note_on_44", "note_on_56", "note_on_56", "note_on_59", "note_on_63", "note_on_63", "note_on_66", "time_shift_69", "note_on_75", "note_on_22", "note_off_44", "time_shift_46", "note_off_80", "time_shift_46", "note_off_63", "time_shift_18", "note_off_63", "time_shift_160", "note_on_32", "note_on_56", "note_on_63", "note_on_68", "time_shift_17", "note_off_49", "time_shift_43", "note_off_44", "time_shift_61", "note_on_32", "time_shift_16", "note_off_44", "note_on_40", "time_shift_92", "note_off_32", "time_shift_77", "note_off_32", "note_off_44", "note_off_63", "time_shift_11", "note_on_40", "note_on_56", "note_on_59", "note_on_61", "note_on_63", "note_on_63", "time_shift_12", "note_off_32", "time_shift_91", "note_off_63", "time_shift_38", "note_off_63", "time_shift_19", "note_off_56", "time_shift_7", "note_on_75", "time_shift_30", "note_off_46", "time_shift_40", "note_on_32", "time_shift_243", "note_off_32", "time_shift_36", "note_off_44", "note_on_37", "note_on_63", "note_on_68", "time_shift_191", "note_off_32", "time_shift_13", "note_on_32", "time_shift_2", "note_off_63", "note_on_44", "note_on_44", "note_on_64", "time_shift_8", "note_off_44", "note_off_75", "time_shift_68", "note_on_32", "note_off_60", "note_on_32", "time_shift_52", "note_off_32", "time_shift_19", "note_off_68", "time_shift_19", "note_on_32", "time_shift_16", "note_off_32", "time_shift_26", "note_on_40", "time_shift_150", "note_off_32", "time_shift_138", "note_off_63", "time_shift_149", "note_off_32", "note_off_44", "time_shift_32", "note_on_32", "time_shift_94", "note_off_32", "time_shift_17", "note_on_32", "time_shift_11", "note_off_44", "time_shift_11", "note_on_32", "note_on_44", "note_on_56", "note_on_56", "note_on_63", "note_on_63", "note_on_75", "note_off_75", "note_on_41", "time_shift_110", "note_off_32", "time_shift_16", "note_off_75", "time_shift_12", "note_off_72", "time_shift_74", "note_off_44", "note_off_63", "note_off_71", "time_shift_16", "note_off_32", "note_off_44", "time_shift_43", "note_on_37", "note_on_37", "note_on_49", "note_on_65", "note_on_77", "time_shift_79", "note_off_44", "time_shift_43", "note_off_56", "time_shift_13", "note_off_63", "time_shift_72", "note_off_68", "time_shift_25", "note_off_77", "time_shift_70", "note_on_37", "note_on_56", "note_on_61", "note_on_65", "note_on_65", "note_on_68", "note_on_68", "note_on_85", "note_on_80", "time_shift_77", "note_off_37", "note_off_44", "note_off_44", "time_shift_47", "note_off_61", "time_shift_49", "note_off_73", "time_shift_17", "note_off_61", "note_off_73", "note_on_37", "note_on_39", "note_on_41", "note_on_70", "note_on_74", "note_on_78", "time_shift_102", "note_off_61", "note_off_66", "time_shift_22", "note_off_70", "time_shift_142", "note_off_44", "time_shift_24", "note_off_34", "time_shift_53", "note_on_34", "time_shift_48", "note_off_34", "time_shift_37", "note_on_34", "note_on_46", "note_on_53", "note_on_58", "note_on_62", "note_on_62", "note_on_74", "note_on_82", "note_on_86", "time_shift_57", "note_off_34", "time_shift_48", "note_off_70", "time_shift_63", "note_on_29", "note_on_65", "note_on_81", "time_shift_9", "note_off_53", "time_shift_146", "note_off_41", "time_shift_48", "note_off_74", "time_shift_95", "note_off_61", "time_shift_35", "note_off_65", "note_off_81", "time_shift_19", "note_off_58", "time_shift_33", "note_on_65", "time_shift_12", "note_on_43", "note_on_57", "time_shift_100", "note_off_65", "time_shift_44", "note_off_41", "time_shift_9", "note_off_65", "time_shift_12", "note_on_69", "time_shift_4", "note_on_65", "time_shift_124", "note_off_72", "time_shift_13", "note_off_65", "time_shift_31", "note_on_60", "time_shift_13", "note_off_59", "time_shift_72", "note_off_57", "time_shift_4", "note_on_65", "note_on_69", "time_shift_18", "note_on_41", "time_shift_39", "note_off_96", "note_on_55", "time_shift_99", "note_off_65", "time_shift_137", "note_off_55", "time_shift_9", "note_off_65", "time_shift_131", "note_off_92", "time_shift_111", "note_on_49", "note_on_53", "note_on_49", "note_on_60", "note_on_65", "note_on_65", "time_shift_53", "note_on_41", "time_shift_74", "note_off_53", "note_off_63", "time_shift_26", "note_off_29", "time_shift_26", "note_on_29", "note_on_88", "time_shift_11", "note_off_28", "time_shift_126", "note_off_80", "time_shift_10", "note_on_26", "note_on_29", "note_on_89", "note_on_77", "time_shift_117", "note_off_77", "time_shift_54", "note_off_60", "note_off_72", "time_shift_4", "note_off_69", "time_shift_118", "note_off_29", "time_shift_72", "note_on_41", "note_on_41", "note_on_41", "note_on_48", "note_on_53", "note_on_60", "note_on_72", "note_on_77", "note_on_79", "note_on_84", "time_shift_33", "note_off_77", "note_off_81", "time_shift_25", "note_off_77", "time_shift_9", "note_off_77", "time_shift_220", "note_off_41", "note_off_53", "note_on_36", "time_shift_6", "note_off_48", "note_off_72", "note_off_84", "time_shift_128", "note_on_65", "note_on_77", "note_on_81", "time_shift_56", "note_off_72", "time_shift_5", "note_off_53", "note_off_54", "time_shift_106", "note_off_65", "note_off_77", "time_shift_2", "note_off_77", "time_shift_19", "note_off_56", "time_shift_9", "note_off_77", "time_shift_51", "note_off_45", "time_shift_80", "note_on_72", "note_on_77", "time_shift_9", "note_off_69", "note_off_72", "note_off_86", "note_off_84", "time_shift_4", "note_on_41", "note_on_41", "note_on_41", "note_on_41", "note_on_48", "note_on_72", "note_on_72", "time_shift_98", "note_off_41", "note_off_53", "note_on_57", "note_on_60", "note_on_65", "note_on_69", "note_on_67", "note_on_77", "time_shift_74", "note_off_60", "time_shift_104", "note_off_65", "note_off_72", "time_shift_4", "note_off_29", "note_off_72", "note_off_80", "note_on_76", "note_on_33", "note_on_69", "note_on_68", "note_on_72", "note_on_76", "time_shift_19", "note_on_90", "time_shift_68", "note_off_60", "note_off_67", "time_shift_90", "note_off_76", "time_shift_17", "note_off_65", "note_off_76", "note_off_76", "time_shift_9", "note_on_72", "note_on_72", "time_shift_15", "note_off_53", "time_shift_42", "note_on_74", "time_shift_5", "note_on_57", "time_shift_11", "note_off_71", "note_on_57", "note_on_60", "note_on_64", "time_shift_171", "note_off_72", "time_shift_407", "note_off_57", "note_off_60", "time_shift_119", "note_off_48", "note_on_29", "note_on_45", "note_on_74", "time_shift_9", "note_on_69", "time_shift_18", "note_off_64", "time_shift_13", "note_off_74", "time_shift_54", "note_on_69", "time_shift_251", "note_off_53", "time_shift_122", "note_off_77", "time_shift_6", "note_on_52", "time_shift_6", "note_on_57", "note_off_81", "time_shift_142", "note_off_69", "time_shift_59", "note_off_57", "time_shift_59", "note_off_57", "time_shift_4", "note_off_69", "time_shift_21", "note_off_41", "note_on_57", "note_on_57", "note_on_62", "note_on_65", "note_on_72", "note_on_74", "time_shift_4", "note_on_53", "time_shift_144", "note_on_57", "time_shift_288", "note_off_65", "time_shift_117", "note_off_29", "time_shift_10", "note_on_57", "time_shift_38", "note_off_57", "note_off_57", "note_off_36", "note_on_59", "time_shift_21", "note_on_29", "time_shift_36", "note_off_57", "time_shift_62", "note_off_29", "time_shift_196", "note_off_29", "note_off_57", "time_shift_13", "note_off_65", "time_shift_145", "note_off_65", "time_shift_4", "note_off_59", "time_shift_47", "note_off_72", "time_shift_78", "note_on_71", "time_shift_3", "note_on_41", "time_shift_4", "note_off_74", "note_off_65", "time_shift_154", "note_on_41", "note_on_60", "note_on_65", "note_on_72", "note_on_77", "time_shift_275", "note_off_41", "time_shift_4", "note_on_41", "note_on_60", "time_shift_289", "note_off_72", "time_shift_71", "note_off_55", "note_off_60", "note_off_65", "time_shift_14", "note_off_69", "time_shift_23", "note_on_67", "time_shift_9", "note_on_53", "note_on_65", "time_shift_236", "note_on_57", "time_shift_2", "note_on_50", "time_shift_50", "note_off_77", "time_shift_95", "note_off_41", "time_shift_29", "note_off_41", "time_shift_42", "note_off_72", "time_shift_4", "note_on_72", "time_shift_57", "note_off_64", "time_shift_2", "note_off_57", "time_shift_76", "note_on_65", "time_shift_12", "note_off_77", "time_shift_71", "note_off_65", "note_off_67", "time_shift_20", "note_off_65", "time_shift_52", "note_on_26", "note_on_62", "note_on_65", "note_on_69", "note_on_74", "time_shift_3", "note_on_31", "time_shift_2", "note_on_31", "time_shift_190", "note_off_50", "time_shift_27", "note_on_29", "time_shift_203", "note_off_33", "time_shift_57", "note_off_65", "time_shift_14", "note_off_41", "time_shift_17", "note_off_65", "time_shift_4", "note_off_65", "time_shift_58", "note_off_33", "time_shift_218", "note_on_77", "time_shift_45", "note_off_84", "time_shift_16", "note_on_53", "time_shift_3", "note_on_41", "time_shift_10", "note_on_53", "note_on_60", "time_shift_7", "note_off_41", "note_off_57", "time_shift_28", "note_off_53", "note_off_57", "note_off_53", "note_off_70", "time_shift_31", "note_on_53", "time_shift_4", "note_on_53", "note_on_60", "time_shift_90", "note_off_41", "time_shift_7", "note_on_29", "note_on_29", "note_on_41", "note_on_67", "time_shift_84", "note_off_29", "note_off_53", "note_off_57", "note_off_57", "time_shift_13", "note_on_53", "note_on_41", "note_on_48", "note_on_53", "note_on_57", "note_on_60", "time_shift_9", "note_off_53", "time_shift_108", "note_off_53", "time_shift_18", "note_off_77", "time_shift_84", "note_off_29", "time_shift_134", "note_off_41", "note_off_41", "time_shift_162", "note_on_29", "note_on_29", "note_on_45", "note_on_56", "note_on_60", "note_on_65", "note_on_65", "time_shift_62", "note_off_69", "time_shift_1", "note_off_29", "time_shift_44", "note_on_55", "time_shift_195", "note_off_60", "time_shift_14", "note_off_65", "time_shift_33", "note_off_60", "time_shift_4", "note_on_53", "time_shift_68", "note_off_41", "note_off_57", "time_shift_52", "note_on_57", "note_on_62", "note_on_65", "time_shift_4", "note_off_65", "time_shift_10", "note_on_57", "note_on_59", "time_shift_4", "note_on_62", "time_shift_4", "note_off_65", "time_shift_4", "note_on_40", "time_shift_8", "note_off_53", "note_off_41", "time_shift_8", "note_off_65", "time_shift_17", "note_on_62", "time_shift_4", "note_on_57", "time_shift_156", "note_off_62", "time_shift_10", "note_off_62", "time_shift_140", "note_off_62", "time_shift_62", "note_off_77", "time_shift_8", "note_off_57", "time_shift_25", "note_off_53", "time_shift_8", "note_off_57", "time_shift_33", "note_off_41", "time_shift_44", "note_on_46", "time_shift_4", "note_on_41", "note_on_48", "note_on_53", "time_shift_8", "note_on_57", "note_on_60", "note_on_64", "time_shift_4", "note_on_59", "time_shift_12", "note_off_41", "time_shift_275", "note_off_71", "time_shift_92", "note_off_33", "note_off_48", "note_on_29", "note_on_36", "note_on_36", "time_shift_59", "note_off_36", "time_shift_8", "note_off_57", "time_shift_8", "note_off_36", "time_shift_225", "note_off_60", "time_shift_57", "note_off_60", "note_off_65", "time_shift_17", "note_off_48", "time_shift_19", "note_on_45", "time_shift_137", "note_off_45", "note_off_41", "time_shift_44", "note_off_48", "time_shift_58", "note_off_41", "time_shift_137", "note_on_24", "note_on_53", "time_shift_9", "note_off_48", "note_off_65", "note_off_74", "time_shift_104", "note_on_62", "time_shift_4", "note_on_53", "note_on_57", "time_shift_2", "note_on_57", "note_on_61", "note_on_65", "time_shift_4", "note_on_31", "note_on_55", "note_on_55", "note_on_62", "note_on_66", "time_shift_9", "note_off_65", "time_shift_12", "note_off_50", "time_shift_13", "note_on_55", "time_shift_114", "note_off_60", "time_shift_12", "note_off_58", "time_shift_179", "note_off_60", "time_shift_4", "note_off_62", "note_off_67", "time_shift_115", "note_off_46", "time_shift_40", "note_on_57", "note_on_60", "time_shift_9", "note_on_60", "time_shift_115", "note_on_65", "note_on_72", "time_shift_8", "note_off_55", "time_shift_17", "note_off_57", "time_shift_4", "note_off_65", "time_shift_8", "note_off_60", "time_shift_14", "note_off_65", "time_shift_23", "note_off_65", "time_shift_40", "note_off_60", "time_shift_27", "note_on_55", "note_on_67", "time_shift_103", "note_off_60", "time_shift_73", "note_on_74", "time_shift_33", "note_on_58", "time_shift_4", "note_on_57", "time_shift_4", "note_off_50", "time_shift_4", "note_on_65", "time_shift_12", "note_on_53", "time_shift_90", "note_off_53", "time_shift_8", "note_off_62", "time_shift_203", "note_on_60", "time_shift_83", "note_off_60", "time_shift_54", "note_off_62", "time_shift_54", "note_off_65", "time_shift_14", "note_off_65", "time_shift_8", "note_off_46", "time_shift_4", "note_off_72", "note_off_69", "note_on_38", "note_on_57", "note_on_62", "note_on_65", "note_on_65", "note_on_69", "note_on_69", "time_shift_9", "note_off_50", "time_shift_4", "note_on_57", "time_shift_17", "note_off_69", "time_shift_9", "note_off_57", "time_shift_4", "note_off_64", "time_shift_2", "note_off_69", "time_shift_4", "note_off_50", "time_shift_62", "note_off_45", "time_shift_12", "note_off_57", "time_shift_24", "note_off_53", "time_shift_73", "note_on_29", "note_on_41", "note_on_41", "note_on_48", "note_on_48", "note_on_55", "note_on_60", "note_on_60", "note_on_64", "note_on_65", "note_on_69", "time_shift_77", "note_off_60", "time_shift_4", "note_off_65", "time_shift_2", "note_off_60", "note_off_67", "time_shift_2", "note_off_41", "time_shift_2", "note_on_46", "time_shift_8", "note_on_74", "time_shift_2", "note_on_50", "note_on_67", "time_shift_4", "note_on_55", "time_shift_12", "note_off_36", "time_shift_16", "note_off_36", "note_on_43", "time_shift_17", "note_off_65", "time_shift_34", "note_off_36", "time_shift_82", "note_off_48", "note_off_55", "time_shift_12", "note_off_52", "time_shift_33", "note_off_53", "time_shift_172", "note_on_45", "time_shift_9", "note_on_72", "time_shift_5", "note_on_55", "time_shift_118", "note_off_77", "time_shift_12", "note_off_55", "time_shift_2", "note_off_50", "time_shift_19", "note_off_55", "time_shift_44", "note_off_67", "time_shift_22", "note_off_36", "time_shift_124", "note_on_41", "note_on_65", "time_shift_2", "note_on_41", "note_on_48", "time_shift_2", "note_off_67", "time_shift_64", "note_off_65", "time_shift_2", "note_off_69", "time_shift_2", "note_off_72", "time_shift_4", "note_off_57", "time_shift_133", "note_off_41", "time_shift_30", "note_on_41", "time_shift_28", "note_on_53", "note_on_65", "time_shift_1000", "time_shift_746", "note_off_53", "time_shift_26", "note_off_53", "note_off_57", "note_off_65", "time_shift_4", "note_off_41", "time_shift_117", "note_on_29", "note_on_50", "note_on_57", "time_shift_14", "note_off_41", "time_shift_23", "note_off_41", "time_shift_20", "note_on_29", "note_on_41", "note_on_48", "note_on_53", "note_on_85", "time_shift_13", "note_off_41", "note_off_53", "note_off_57", "time_shift_8", "note_off_29", "note_off_53", "time_shift_8", "note_on_29", "note_on_48", "note_on_53", "note_on_60", "time_shift_4", "note_on_41", "time_shift_9", "note_on_53", "time_shift_2", "note_off_53", "time_shift_8", "note_off_29", "time_shift_147", "note_off_57", "time_shift_5", "note_off_22", "time_shift_2", "note_off_53", "time_shift_4", "note_on_38", "note_on_50", "note_on_57", "time_shift_4", "note_on_53", "time_shift_4", "note_on_65", "time_shift_4", "note_on_64", "time_shift_142", "note_on_62", "time_shift_8", "note_on_53", "note_on_57", "time_shift_29", "note_off_65", "time_shift_9", "note_off_57", "time_shift_4", "note_off_57", "time_shift_4", "note_off_62", "note_off_65", "time_shift_4", "note_off_53", "note_off_53", "time_shift_104", "note_off_53", "note_off_60", "time_shift_100", "note_off_41", "time_shift_34", "note_off_50", "note_off_53", "note_on_69", "time_shift_109", "note_off_65", "time_shift_13", "note_on_38", "time_shift_4", "note_on_41", "note_on_57", "note_on_65", "time_shift_8", "note_on_62", "time_shift_4", "note_on_57", "time_shift_225", "note_off_53", "time_shift_17", "note_off_53", "note_off_57", "note_off_65", "time_shift_4", "note_off_57", "time_shift_8", "note_off_65", "time_shift_8", "note_off_65", "note_on_45", "time_shift_4", "note_on_29", "note_on_41", "note_on_60", "note_on_65", "note_on_65", "note_on_65", "time_shift_2", "note_off_65", "time_shift_4", "note_on_53", "time_shift_69", "note_off_53", "time_shift_11", "note_off_53", "time_shift_24", "note_off_41", "note_on_41", "note_on_60", "time_shift_2", "note_off_69", "time_shift_8", "note_on_31", "time_shift_114", "note_off_60", "time_shift_4", "note_off_65", "time_shift_8", "note_off_60", "time_shift_4", "note_off_65", "time_shift_4", "note_off_29", "time_shift_9", "note_off_41", "time_shift_4", "note_off_53", "time_shift_17", "note_off_65", "time_shift_21", "note_off_53", "time_shift_2", "note_off_60", "time_shift_8", "note_off_65", "time_shift_17", "note_off_60", "time_shift_2", "note_off_65", "time_shift_4", "note_on_41", "note_on_41", "note_on_53", "note_on_65", "note_on_57", "note_on_60", "note_on_65", "time_shift_4", "note_on_41", "note_on_72", "time_shift_94", "note_off_29", "time_shift_4", "note_off_41", "note_off_41", "time_shift_4", "note_off_29", "note_off_52", "time_shift_4", "note_off_64", "time_shift_2", "note_off_77", "time_shift_59", "note_off_60", "time_shift_130", "note_on_31", "time_shift_209", "note_off_77", "time_shift_2", "note_on_43", "note_on_67", "time_shift_4", "note_on_43", "time_shift_2", "note_on_55", "time_shift_2", "note_on_58", "time_shift_1", "note_on_62", "time_shift_17", "note_off_58", "time_shift_16", "note_off_69", "time_shift_8", "note_off_53", "time_shift_4", "note_off_69", "time_shift_19", "note_off_43", "note_off_65", "time_shift_11", "note_on_33", "note_on_48", "note_on_50", "note_on_57", "note_on_59", "note_on_62", "note_on_65", "note_on_72", "time_shift_2", "note_off_64", "time_shift_1", "note_on_64", "time_shift_117", "note_off_50", "time_shift_4", "note_off_65", "time_shift_68", "note_off_53", "time_shift_4", "note_off_65", "time_shift_13", "note_off_65", "note_off_69", "time_shift_4", "note_off_65", "time_shift_9", "note_off_60", "time_shift_39", "note_on_65", "time_shift_4", "note_on_52", "time_shift_4", "note_on_60", "note_on_77", "time_shift_124", "note_off_55", "time_shift_12", "note_off_60", "time_shift_8", "note_off_62", "time_shift_200", "note_off_72", "time_shift_145", "note_on_59", "time_shift_8", "note_on_57", "time_shift_8", "note_off_81", "time_shift_8", "note_on_59", "time_shift_12", "note_on_52", "time_shift_68", "note_off_72", "time_shift_102", "note_off_59", "time_shift_112", "note_off_33", "note_off_55", "note_off_57", "time_shift_70", "note_on_57", "time_shift_11", "note_off_33", "note_off_45", "note_off_57", "time_shift_8", "note_on_67", "time_shift_11", "note_on_57", "note_on_66", "time_shift_15", "note_on_35", "note_on_50", "note_on_55", "note_on_54", "time_shift_270", "note_on_59", "note_on_62", "time_shift_49", "note_off_59", "time_shift_2", "note_off_50", "time_shift_8", "note_off_57", "time_shift_17", "note_off_62", "time_shift_8", "note_off_71", "time_shift_12", "note_off_50", "time_shift_2", "note_off_57", "time_shift_2", "note_off_57", "time_shift_2", "note_off_50", "time_shift_40", "note_off_50", "time_shift_39", "note_off_54", "time_shift_8", "note_off_35", "time_shift_2", "note_on_59", "time_shift_8", "note_on_74", "time_shift_52", "note_off_47", "time_shift_28", "note_off_62", "time_shift_2", "note_off_71", "note_off_91", "time_shift_8", "note_off_62", "time_shift_9", "note_on_38", "note_on_38", "time_shift_146", "note_off_45", "time_shift_4", "note_on_38", "time_shift_2", "note_off_38", "time_shift_10", "note_off_38", "time_shift_8", "note_off_69", "time_shift_4", "note_off_50", "time_shift_4", "note_off_74", "time_shift_232", "note_off_69", "time_shift_4", "note_on_41", "note_on_29", "note_on_53", "note_on_58", "time_shift_2", "note_on_57", "time_shift_28", "note_off_60", "time_shift_45", "note_off_57", "time_shift_62", "note_off_45", "time_shift_4", "note_on_48", "note_on_60", "time_shift_9", "note_on_53", "note_on_57", "note_on_60", "note_on_60", "note_on_60", "note_on_65", "note_on_65", "time_shift_62", "note_off_79", "time_shift_84", "note_off_57", "time_shift_62", "note_off_60", "time_shift_8", "note_on_29", "note_on_53", "note_on_60", "note_on_65", "note_on_65", "note_on_65", "note_on_70", "time_shift_33", "note_off_48", "note_off_63", "time_shift_4", "note_off_65", "note_on_44", "time_shift_34", "note_on_60", "time_shift_28", "note_on_60", "time_shift_6", "note_off_65", "time_shift_6", "note_off_60", "note_off_54", "note_off_58", "time_shift_146", "note_off_41", "time_shift_11", "note_on_48", "note_on_57", "note_on_60", "note_on_65", "note_on_75", "note_on_81", "time_shift_18", "note_on_69", "time_shift_12", "note_off_48", "time_shift_46", "note_on_57", "time_shift_63", "note_off_60", "time_shift_8", "note_off_77", "time_shift_8", "note_off_63", "note_off_72", "time_shift_5", "note_off_65", "time_shift_8", "note_off_44", "time_shift_53", "note_off_41", "time_shift_61", "note_on_45", "note_on_60", "note_on_65", "time_shift_76", "note_off_65", "time_shift_41", "note_off_72", "time_shift_14", "note_off_65", "time_shift_39", "note_off_53", "time_shift_8", "note_off_41", "time_shift_8", "note_on_29", "note_on_52", "time_shift_4", "note_on_72", "time_shift_59", "note_off_29", "note_off_45", "time_shift_4", "note_on_47", "time_shift_8", "note_on_57", "time_shift_4", "note_on_60", "time_shift_229", "note_off_41", "note_off_41", "time_shift_12", "note_off_60", "note_off_32", "time_shift_164", "note_off_60", "time_shift_4", "note_off_76", "time_shift_4", "note_off_60", "note_off_60", "time_shift_5", "note_off_57", "time_shift_45", "note_on_29", "note_on_60", "note_on_65", "time_shift_4", "note_on_74", "time_shift_29", "note_off_41", "time_shift_65", "note_off_57", "note_off_60", "time_shift_11", "note_on_38", "note_on_55", "note_on_53", "note_on_60", "time_shift_164", "note_off_41", "time_shift_20", "note_off_26", "time_shift_136", "note_off_77", "time_shift_251", "note_off_60", "note_on_41", "time_shift_8", "note_off_41", "time_shift_61", "note_on_69", "time_shift_78", "note_off_41", "time_shift_14", "note_off_55", "note_off_60", "time_shift_12", "note_off_65", "time_shift_39", "note_on_65", "time_shift_31", "note_off_72", "time_shift_4", "note_off_65", "time_shift_11", "note_on_41", "note_on_48", "note_on_53", "note_on_57", "note_on_60", "note_on_60", "note_on_60", "note_on_67", "note_on_70", "time_shift_285", "note_off_53", "note_off_53", "note_off_41", "time_shift_30", "note_on_29", "time_shift_12", "note_on_58", "time_shift_4", "note_on_57", "note_on_81", "time_shift_2", "note_off_54", "time_shift_416", "note_off_58", "time_shift_85", "note_off_29", "note_off_60", "time_shift_4", "note_off_69", "time_shift_2", "note_off_48", "time_shift_2", "note_on_29", "note_on_48", "time_shift_22", "note_off_73", "time_shift_2", "note_off_29", "note_off_36", "time_shift_40", "note_off_29", "note_off_60", "time_shift_4", "note_off_60", "time_shift_192", "note_on_29", "note_on_53", "time_shift_203", "note_off_41", "note_off_60", "note_on_34", "time_shift_4", "note_off_65", "time_shift_4", "note_on_29", "note_on_41", "note_on_36", "time_shift_8", "note_off_36", "note_on_64", "note_on_67", "note_on_72", "note_on_77", "time_shift_88", "note_on_58", "time_shift_16", "note_off_65", "time_shift_12", "note_off_65", "time_shift_4", "note_off_72", "time_shift_4", "note_off_67", "time_shift_14", "note_off_60", "time_shift_30", "note_off_65", "time_shift_8", "note_on_57", "note_on_60", "note_on_63", "note_on_68", "time_shift_69", "note_off_41", "time_shift_8", "note_off_48", "note_off_95", "time_shift_72", "note_off_60", "note_off_60", "time_shift_4", "note_on_65", "time_shift_142", "note_off_72", "time_shift_4", "note_off_77", "time_shift_93", "note_on_72", "time_shift_1", "note_on_29", "time_shift_20", "note_on_36", "time_shift_16", "note_off_41", "time_shift_184", "note_off_27", "time_shift_4", "note_off_65", "time_shift_4", "note_on_62", "time_shift_8", "note_off_57", "time_shift_2", "note_off_65", "time_shift_19", "note_on_29", "note_on_48", "note_on_53", "note_on_57", "note_on_60", "note_on_60", "time_shift_58", "note_off_89", "time_shift_288", "note_off_72", "time_shift_26", "note_off_69", "time_shift_9", "note_off_41", "note_off_53", "note_off_57", "note_off_60", "time_shift_4", "note_off_65", "note_off_65", "time_shift_4", "note_on_36", "note_on_60", "note_on_65", "note_on_65", "time_shift_4", "note_on_57", "time_shift_4", "note_off_50", "time_shift_4", "note_off_41", "time_shift_12", "note_off_60", "time_shift_34", "note_off_41", "note_off_57", "note_off_65", "time_shift_4", "note_on_36", "time_shift_4", "note_off_65", "note_off_68", "time_shift_40", "note_off_29", "time_shift_57", "note_on_36", "time_shift_17", "note_on_64", "time_shift_4", "note_on_52", "note_on_57", "time_shift_8", "note_on_60", "note_on_65", "note_on_69", "time_shift_8", "note_on_65", "time_shift_2", "note_on_77", "time_shift_30", "note_off_65", "time_shift_2", "note_off_36", "time_shift_10", "note_on_57", "time_shift_4", "note_on_36", "time_shift_2", "note_off_24", "note_off_48", "time_shift_6", "note_off_77", "note_on_65", "time_shift_20", "note_off_36", "time_shift_60", "note_off_65", "time_shift_8", "note_off_65", "time_shift_12", "note_off_65", "time_shift_7", "note_off_57", "time_shift_9", "note_on_41", "note_on_65", "time_shift_47", "note_off_65", "time_shift_15", "note_off_65", "time_shift_9", "note_on_77", "time_shift_77", "note_off_45", "time_shift_9", "time_shift_706", "note_on_29", "note_on_41", "time_shift_8", "note_off_65", "note_off_65", "time_shift_55", "note_off_65", "time_shift_4", "note_off_69", "time_shift_4", "note_off_41", "time_shift_26", "note_off_41", "time_shift_100", "note_on_29", "note_off_41", "time_shift_8", "note_on_41", "note_on_48", "note_on_48", "note_on_53", "note_on_65", "time_shift_2", "note_on_96", "time_shift_200", "note_off_41", "time_shift_8", "note_off_65", "time_shift_48", "note_off_29", "time_shift_4", "note_on_60", "note_on_65", "time_shift_17", "note_on_74", "time_shift_13", "note_off_74", "time_shift_12", "note_off_41", "time_shift_4", "note_off_65", "time_shift_9", "note_off_77", "time_shift_95", "note_on_69", "time_shift_42", "note_off_29", "time_shift_90", "note_off_29", "note_off_41", "time_shift_163", "note_on_33", "note_on_41", "note_on_48", "note_on_67", "time_shift_194", "note_off_29", "note_on_41", "time_shift_32", "note_off_53", "time_shift_168", "note_off_60", "note_on_67", "time_shift_151", "note_off_65", "note_off_65", "time_shift_8", "note_off_67", "note_off_72", "time_shift_194", "note_off_41", "time_shift_8", "note_off_29", "time_shift_12", "note_on_62", "time_shift_12", "note_off_41", "note_off_41", "time_shift_16", "note_on_36", "note_on_55", "note_on_60", "note_on_64", "note_on_65", "note_on_69", "note_on_72", "note_on_73", "note_on_76", "time_shift_2", "note_off_69", "time_shift_258", "note_off_64", "time_shift_8", "note_off_60", "time_shift_2", "note_off_67", "time_shift_31", "note_off_65", "time_shift_16", "note_off_48", "time_shift_109", "note_on_65", "note_on_74", "time_shift_3", "note_off_60", "note_off_65", "note_off_64", "time_shift_4", "note_off_65", "time_shift_9", "note_off_65", "time_shift_4", "note_on_64", "note_on_67", "note_on_79", "time_shift_48", "note_on_36", "note_on_64", "note_on_67", "time_shift_57", "note_off_67", "time_shift_24", "note_off_48", "time_shift_8", "note_off_64", "note_off_64", "note_off_67", "note_off_67", "time_shift_32", "note_off_60", "time_shift_4", "note_off_65", "note_off_64", "note_off_67", "note_off_79", "time_shift_48", "note_on_62", "time_shift_67", "note_off_62", "time_shift_12", "note_off_67", "time_shift_8", "note_off_76", "time_shift_62", "note_off_36", "time_shift_4", "note_on_36", "note_on_55", "note_on_60", "note_on_60", "note_on_64", "time_shift_84", "note_off_60", "time_shift_19", "note_off_55", "note_off_60", "time_shift_26", "note_on_69", "time_shift_10", "note_off_67", "note_on_56", "note_on_60", "time_shift_7", "note_off_55", "note_off_60", "time_shift_8", "note_on_60", "note_on_69", "note_on_69", "time_shift_8", "note_off_60", "time_shift_18", "note_on_38", "time_shift_8", "note_off_57", "time_shift_221", "note_on_60", "note_on_64", "note_on_69", "time_shift_91", "note_off_60", "time_shift_8", "note_off_64", "time_shift_10", "note_off_60", "time_shift_2", "note_off_69", "time_shift_2", "note_on_41", "note_on_33", "note_on_53", "note_on_64", "note_on_69", "note_on_69", "note_on_80", "time_shift_83", "note_off_53", "note_off_57", "note_off_67", "note_off_69", "time_shift_43", "note_off_41", "time_shift_26", "note_off_41", "time_shift_17", "note_on_40", "note_on_40", "note_on_55", "note_on_60", "note_on_64", "time_shift_92", "note_off_67", "time_shift_20", "note_off_64", "time_shift_4", "note_off_77", "time_shift_22", "note_off_52", "time_shift_20", "note_off_40", "time_shift_2", "note_off_60", "note_off_67", "note_on_48", "time_shift_59", "note_off_60", "time_shift_168", "note_off_64", "time_shift_19", "note_off_48", "time_shift_2", "note_on_48", "note_on_60", "time_shift_4", "note_on_60", "note_on_64", "note_on_67", "time_shift_9", "note_on_36", "time_shift_6", "note_on_81", "time_shift_6", "note_off_60", "time_shift_49", "note_off_60", "time_shift_2", "note_off_69", "time_shift_12", "note_on_69", "time_shift_4", "note_off_36", "note_on_43", "note_off_60", "note_on_64", "time_shift_2", "note_on_56", "note_on_60", "time_shift_15", "note_off_48", "time_shift_2", "note_off_60", "time_shift_26", "note_off_64", "time_shift_5", "note_off_60", "time_shift_50", "note_off_55", "time_shift_1", "note_off_69", "time_shift_2", "note_off_60", "note_on_64", "time_shift_2", "note_on_64", "note_on_64", "time_shift_2", "note_off_65", "note_on_67", "time_shift_4", "note_off_60", "time_shift_4", "note_on_60", "note_on_64", "time_shift_4", "note_off_60", "note_off_64", "note_on_47", "time_shift_8", "note_off_60", "time_shift_2", "note_on_55", "note_on_55", "note_on_59", "time_shift_112", "note_off_55", "time_shift_31", "note_off_52", "time_shift_84", "note_off_64", "time_shift_16", "note_off_52", "time_shift_33", "note_off_64", "time_shift_49", "note_on_55", "note_on_60", "note_off_67", "time_shift_4", "note_off_55", "note_on_55", "note_on_64", "time_shift_4", "note_on_60", "time_shift_8", "note_on_59", "note_on_76", "time_shift_187", "note_on_50", "time_shift_76", "note_off_60", "note_on_60", "time_shift_8", "note_off_60", "time_shift_2", "note_off_60", "note_on_44", "time_shift_17", "note_off_65", "time_shift_44", "note_on_64", "note_on_72", "time_shift_26", "note_off_64", "time_shift_9", "note_off_55", "time_shift_78", "note_off_64", "time_shift_172", "note_on_44", "note_on_55", "note_on_60", "note_on_64", "note_on_65", "time_shift_5", "note_on_64", "time_shift_2", "note_on_58", "time_shift_8", "note_off_64", "time_shift_65", "note_off_67", "time_shift_16", "note_off_55", "time_shift_16", "note_off_28", "time_shift_156", "note_on_55", "note_on_60", "note_on_64", "note_on_67", "note_on_69", "time_shift_8", "note_on_60", "time_shift_5", "note_on_60", "time_shift_145", "note_off_40", "time_shift_33", "note_off_64", "time_shift_2", "note_on_64", "time_shift_12", "note_off_52", "time_shift_47", "note_on_55", "time_shift_64", "note_off_64", "time_shift_10", "note_off_60", "note_off_64", "time_shift_2", "note_off_52", "note_off_68", "time_shift_40", "note_off_60", "time_shift_4", "note_off_36", "time_shift_14", "note_on_36", "note_on_55", "note_on_55", "note_on_60", "note_on_64", "time_shift_2", "note_on_60", "time_shift_212", "note_off_50", "time_shift_2", "note_off_64", "time_shift_8", "note_off_60", "time_shift_2", "note_off_60", "time_shift_14", "note_off_60", "time_shift_12", "note_off_60", "time_shift_10", "note_off_67", "time_shift_43", "note_off_64", "time_shift_14", "note_on_36", "note_on_55", "note_on_58", "note_on_60", "note_on_64", "note_on_64", "note_on_76", "time_shift_8", "note_on_62", "time_shift_46", "note_off_52", "time_shift_14", "note_off_36", "time_shift_25", "note_off_64", "time_shift_41", "note_off_24", "note_off_64", "time_shift_2", "note_on_67", "time_shift_2", "note_off_64", "time_shift_94", "note_on_36", "time_shift_41", "note_off_36", "time_shift_10", "note_on_43", "note_on_60", "time_shift_2", "note_on_48", "note_on_60", "note_on_64", "note_on_65", "time_shift_5", "note_on_64", "time_shift_8", "note_off_60", "time_shift_2", "note_off_60", "time_shift_2", "note_off_60", "time_shift_4", "note_on_36", "note_on_67", "time_shift_11", "note_off_55", "time_shift_2", "note_off_48", "time_shift_82", "note_off_60", "time_shift_5", "note_off_64", "note_off_67", "time_shift_10", "note_off_36", "time_shift_34", "note_off_67", "time_shift_12", "note_off_43", "time_shift_5", "note_off_64", "note_on_65", "time_shift_15", "note_on_53", "time_shift_145", "note_on_48", "time_shift_8", "note_off_60", "time_shift_2", "note_off_69", "time_shift_4", "note_on_36", "note_on_48", "time_shift_12", "note_on_60", "note_on_65", "time_shift_69", "note_off_57", "note_off_65", "time_shift_35", "note_off_60", "time_shift_4", "note_off_36", "note_off_41", "time_shift_60", "note_on_41", "note_on_65", "time_shift_118", "note_off_77", "note_on_55", "note_on_60", "time_shift_8", "note_on_64", "time_shift_50", "note_off_55", "note_off_60", "note_off_65", "time_shift_2", "note_on_62", "time_shift_2", "note_on_36", "time_shift_171", "note_off_48", "time_shift_136", "note_off_65", "time_shift_10", "note_off_60", "time_shift_75", "note_off_65", "time_shift_47", "note_on_29", "time_shift_54", "note_on_48", "time_shift_51", "note_on_65", "time_shift_8", "note_on_60", "note_on_62", "note_on_64", "time_shift_2", "note_on_55", "time_shift_2", "note_on_67", "time_shift_153", "note_off_41", "time_shift_40", "note_off_36", "time_shift_23", "note_off_67", "time_shift_16", "note_off_60", "time_shift_26", "note_off_55", "time_shift_128", "note_off_53", "time_shift_33", "note_on_48", "note_on_60", "time_shift_64", "note_off_60", "time_shift_2", "note_on_48", "note_on_60", "time_shift_2", "note_on_55", "note_on_60", "note_on_64", "time_shift_8", "note_on_60", "time_shift_16", "note_off_57", "time_shift_29", "note_off_60", "time_shift_8", "note_off_64", "time_shift_2", "note_off_64", "time_shift_30", "note_off_60", "time_shift_26", "note_off_55", "time_shift_2", "note_off_41", "note_off_55", "note_off_60", "note_off_60", "note_off_64", "note_off_67", "time_shift_5", "note_off_60", "time_shift_4", "note_on_67", "time_shift_47", "note_off_44", "time_shift_16", "note_off_67", "time_shift_31", "note_on_38", "note_on_62", "note_on_65", "note_on_66", "note_on_69", "time_shift_51", "note_off_65", "time_shift_1", "note_on_67", "time_shift_8", "note_on_40", "time_shift_91", "note_off_62", "note_off_62", "time_shift_41", "note_off_66", "time_shift_8", "note_off_69", "time_shift_91", "note_off_67", "time_shift_387", "note_off_59", "time_shift_4", "note_on_57", "time_shift_44", "note_off_70", "time_shift_17", "note_on_69", "time_shift_4", "note_off_50", "time_shift_89", "time_shift_50", "time_shift_2", "time_shift_30", "note_off_69", "note_on_48", "time_shift_76", "note_off_79", "time_shift_1", "note_on_38", "note_on_57", "note_on_57", "note_on_62", "note_on_65", "note_on_69", "time_shift_91", "note_off_38", "note_off_57", "note_off_62", "note_off_65", "note_off_70", "time_shift_4", "note_on_38", "time_shift_2", "note_on_38", "time_shift_8", "note_on_66", "time_shift_107", "note_off_42", "note_off_70", "note_on_38", "note_on_38", "time_shift_8", "note_off_62", "time_shift_8", "note_on_66", "time_shift_4", "note_off_66", "note_on_62", "time_shift_4", "note_off_50", "time_shift_8", "note_off_62", "time_shift_4", "note_off_66", "time_shift_169", "note_off_38", "time_shift_49", "note_off_50", "time_shift_54", "note_off_54", "time_shift_4", "note_on_38", "note_on_57", "time_shift_25", "note_off_62", "time_shift_4", "note_off_57", "time_shift_4", "note_off_61", "time_shift_4", "note_on_53", "time_shift_4", "note_on_60", "time_shift_82", "note_off_38", "time_shift_8", "note_off_38", "note_off_53", "time_shift_4", "note_on_36", "note_on_60", "note_on_60", "time_shift_4", "note_on_48", "time_shift_2", "note_off_41", "time_shift_2", "note_off_60", "time_shift_30", "note_on_36", "time_shift_75", "note_off_67", "time_shift_76", "note_on_69", "time_shift_70", "note_on_75", "time_shift_101", "note_off_70", "time_shift_39", "note_off_72", "note_off_73", "note_on_65", "time_shift_4", "note_on_72", "time_shift_2", "note_on_48", "note_off_59", "note_on_60", "time_shift_16", "note_off_65", "time_shift_415", "note_on_62", "time_shift_13", "note_on_53", "note_on_65", "time_shift_19", "note_off_62", "time_shift_93", "note_off_65", "time_shift_12", "note_off_65", "time_shift_54", "note_on_69", "time_shift_62", "note_off_65", "time_shift_12", "note_off_65", "note_off_68", "note_off_72", "time_shift_9", "note_on_72", "note_on_72", "time_shift_4", "note_off_41", "time_shift_2", "note_off_65", "time_shift_4", "note_off_72", "time_shift_4", "note_on_62", "time_shift_2", "note_on_56", "time_shift_17", "note_off_53", "time_shift_31", "note_off_98", "time_shift_119", "note_off_74", "note_on_69", "time_shift_4", "note_on_60", "time_shift_142", "note_off_60", "time_shift_12", "note_off_53", "time_shift_17", "note_off_60", "time_shift_2", "note_off_64", "time_shift_29", "note_on_41", "note_on_41", "note_on_60", "note_on_60", "note_on_65", "time_shift_69", "note_off_41", "time_shift_72", "note_off_41", "time_shift_36", "note_off_41", "time_shift_25", "note_off_73", "time_shift_12", "note_on_29", "note_on_48", "note_on_60", "note_on_63", "note_on_72", "time_shift_168", "note_off_29", "time_shift_142", "note_on_65", "time_shift_214", "note_off_60", "note_off_72", "note_off_77", "note_on_72", "time_shift_134", "note_off_29", "time_shift_15", "note_on_60", "note_on_65", "time_shift_4", "note_on_60", "time_shift_4", "note_off_60", "time_shift_25", "note_off_50", "time_shift_8", "note_off_60", "note_on_72", "time_shift_4", "note_off_64", "time_shift_40", "note_off_41", "note_off_60", "note_off_65", "time_shift_2", "note_off_65", "note_off_75", "time_shift_16", "note_on_60", "time_shift_5", "note_on_58", "time_shift_2", "note_off_63", "time_shift_25", "note_on_70", "note_on_74", "note_on_72", "time_shift_2", "note_off_65", "time_shift_32", "note_off_70", "time_shift_34", "note_off_34", "time_shift_138", "note_on_41", "time_shift_7", "note_on_69", "note_on_72", "note_on_76", "time_shift_16", "note_off_72", "time_shift_187", "note_on_53", "note_on_60", "note_on_60", "note_on_65", "note_on_69", "time_shift_83", "note_off_60", "time_shift_16", "note_off_77", "time_shift_294", "note_off_53", "time_shift_11", "note_off_65", "time_shift_4", "note_off_77", "time_shift_16", "note_off_29", "time_shift_12", "note_off_41", "time_shift_16", "note_off_64", "time_shift_143", "note_on_63", "time_shift_49", "note_off_60", "time_shift_4", "note_off_60", "note_off_72", "time_shift_4", "note_on_29", "note_on_69", "time_shift_55", "note_off_29", "time_shift_47", "note_on_40", "time_shift_2", "note_on_40", "note_on_62", "note_on_65", "time_shift_8", "note_on_62", "note_on_62", "note_on_65", "time_shift_288", "note_off_62", "note_off_66", "time_shift_12", "note_on_67", "time_shift_12", "note_off_64", "note_off_70", "time_shift_81", "note_off_74", "time_shift_17", "note_off_65", "time_shift_2", "note_on_69", "time_shift_4", "note_on_67", "time_shift_2", "note_on_50", "time_shift_87", "note_off_65", "time_shift_8", "note_off_65", "time_shift_45", "note_off_64", "note_off_65", "time_shift_8", "note_off_67", "time_shift_12", "note_off_64", "time_shift_2", "note_on_64", "time_shift_17", "note_on_67", "time_shift_2", "note_on_69", "time_shift_122", "note_off_43", "time_shift_34", "note_on_74", "time_shift_63", "note_off_65", "time_shift_18", "note_off_69", "time_shift_44", "note_off_71", "time_shift_67", "note_on_45", "time_shift_88", "note_on_67", "time_shift_25", "note_on_69", "time_shift_104", "note_off_45", "time_shift_2", "note_on_43", "time_shift_8", "note_on_57", "note_on_62", "time_shift_16", "note_on_67", "time_shift_172", "note_off_69", "time_shift_31", "note_off_43", "time_shift_54", "note_on_74", "time_shift_35", "note_off_67", "time_shift_1", "note_off_76", "time_shift_9", "note_on_69", "time_shift_12", "note_on_40", "time_shift_111", "note_off_62", "time_shift_91", "note_off_40", "time_shift_4", "note_off_69", "time_shift_47", "note_off_88", "note_off_40", "time_shift_94", "note_on_43", "time_shift_8", "note_off_50", "time_shift_2", "note_on_64", "note_on_71", "time_shift_8", "note_on_40", "note_on_55", "note_on_67", "time_shift_4", "note_on_67", "note_on_79", "note_on_86", "time_shift_2", "note_off_43", "time_shift_2", "note_off_52", "time_shift_1", "note_off_64", "time_shift_26", "note_off_67", "time_shift_4", "note_off_67", "time_shift_70", "note_off_71", "note_on_50", "time_shift_4", "note_on_43", "time_shift_4", "note_on_62", "time_shift_4", "note_off_55", "time_shift_2", "note_on_67", "note_on_67", "time_shift_20", "note_off_67", "time_shift_12", "note_off_67", "time_shift_8", "note_off_59", "note_off_67", "time_shift_4", "note_off_43", "time_shift_44", "note_off_38", "time_shift_89", "note_off_50", "time_shift_30", "note_off_50", "time_shift_33", "note_on_38", "time_shift_39", "note_on_55", "note_on_55", "note_on_59", "note_on_59", "note_on_64", "note_on_67", "time_shift_94", "note_on_62", "note_on_62", "note_on_79", "time_shift_2", "note_off_50", "note_off_59", "note_off_62", "time_shift_114", "note_off_64", "note_off_67", "note_off_79", "note_on_38", "time_shift_8", "note_on_50", "note_on_74", "time_shift_68", "note_off_62", "note_off_67", "note_off_67", "time_shift_65", "note_on_69", "time_shift_4", "note_on_62", "time_shift_4", "time_shift_8", "note_on_66", "time_shift_9", "note_off_69", "time_shift_62", "note_off_50", "note_off_55", "time_shift_17", "note_off_62", "note_off_62", "time_shift_98", "note_off_69", "time_shift_434", "note_off_57", "note_off_66", "time_shift_118", "note_on_76", "time_shift_2", "note_on_88", "time_shift_234", "note_off_38", "time_shift_12", "note_off_78", "time_shift_22", "note_off_71", "time_shift_5", "note_on_38", "note_on_50", "time_shift_4", "note_on_72", "note_on_72", "note_on_74", "time_shift_87", "note_off_72", "time_shift_4", "note_off_76", "note_on_76", "time_shift_10", "note_off_72", "time_shift_85", "note_off_50", "time_shift_2", "note_off_76", "time_shift_17", "note_off_74", "time_shift_178", "note_on_55", "note_on_67", "note_on_71", "note_on_67", "note_on_67", "note_on_72", "note_on_72", "time_shift_2", "note_on_31", "note_on_55", "note_on_71", "note_on_72", "time_shift_12", "note_on_62", "time_shift_12", "note_off_50", "time_shift_20", "note_off_72", "note_off_71", "time_shift_4", "note_off_67", "time_shift_4", "note_on_71", "time_shift_8", "note_off_71", "time_shift_14", "note_off_71", "time_shift_8", "note_off_74", "time_shift_32", "note_on_74", "time_shift_16", "note_on_68", "time_shift_8", "note_off_43", "time_shift_66", "note_on_81", "time_shift_91", "note_off_26", "note_on_66", "time_shift_9", "note_off_81", "time_shift_4", "note_off_38", "time_shift_20", "note_off_73", "time_shift_4", "note_off_72", "time_shift_8", "note_off_64", "time_shift_48", "note_off_71", "time_shift_32", "note_off_94", "time_shift_8", "note_on_83", "time_shift_31", "note_off_50", "time_shift_4", "note_on_78", "time_shift_40", "note_off_71", "time_shift_8", "note_on_74", "time_shift_57", "note_off_38", "note_on_31", "time_shift_16", "note_on_79", "time_shift_14", "note_off_43", "note_off_50", "time_shift_57", "note_on_71", "time_shift_54", "note_off_45", "time_shift_51", "note_off_55", "time_shift_4", "note_off_71", "time_shift_4", "note_off_74", "time_shift_4", "note_on_48", "note_on_55", "note_on_81", "time_shift_2", "note_on_74", "time_shift_44", "note_off_53", "time_shift_8", "note_off_79", "time_shift_12", "note_off_67", "note_off_72", "time_shift_8", "note_on_74", "time_shift_57", "note_off_74", "time_shift_117", "note_on_74", "time_shift_4", "note_on_74", "time_shift_142", "note_off_74", "time_shift_5", "note_on_74", "time_shift_51", "note_off_74", "note_off_74", "time_shift_41", "note_off_50", "time_shift_18", "note_off_74", "time_shift_8", "note_off_76", "time_shift_47", "note_off_36", "time_shift_54", "note_off_74", "time_shift_110", "note_on_79", "time_shift_12", "note_off_69", "time_shift_124", "note_off_69", "time_shift_16", "note_on_55", "note_on_67", "time_shift_8", "note_on_67", "time_shift_26", "note_on_70", "note_on_76", "time_shift_13", "note_on_24", "note_on_91", "time_shift_6", "note_off_43", "note_off_67", "note_off_79", "time_shift_8", "note_off_67", "note_off_72", "note_off_74", "time_shift_4", "note_off_79", "note_off_81", "time_shift_2", "note_off_79", "time_shift_9", "note_off_50", "note_off_55", "note_off_79", "time_shift_267", "note_on_91", "time_shift_120", "note_on_79", "time_shift_128", "note_off_79", "note_off_79", "time_shift_12", "note_off_34", "time_shift_68", "note_on_31", "time_shift_4", "note_on_71", "note_on_67", "note_on_69", "time_shift_2", "note_off_67", "note_on_64", "time_shift_84", "note_off_71", "time_shift_23", "note_off_31", "time_shift_29", "note_off_71", "note_on_74", "time_shift_4", "note_on_76", "note_on_86", "time_shift_4", "note_on_86", "time_shift_8", "note_off_66", "time_shift_4", "note_off_81", "time_shift_8", "note_on_64", "time_shift_25", "note_off_64", "time_shift_16", "note_off_84", "time_shift_16", "note_off_67", "time_shift_36", "note_off_59", "time_shift_68", "note_on_76", "time_shift_39", "note_off_64", "time_shift_16", "note_off_76", "time_shift_4", "note_on_67", "time_shift_12", "note_off_66", "note_on_36", "note_on_55", "note_on_64", "note_on_64", "note_on_67", "note_on_76", "note_on_76", "time_shift_4", "note_on_83", "note_on_86", "time_shift_4", "note_on_67", "time_shift_16", "note_off_93", "time_shift_75", "note_on_67", "time_shift_68", "note_off_79", "time_shift_8", "note_off_67", "note_off_71", "note_off_67", "note_off_79", "time_shift_4", "note_on_52", "time_shift_4", "note_on_69", "time_shift_263", "note_off_76", "time_shift_4", "note_off_56", "time_shift_4", "note_on_66", "note_on_72", "note_on_76", "time_shift_179", "note_off_74", "time_shift_16", "note_off_76", "time_shift_99", "note_off_64", "note_off_67", "time_shift_39", "note_off_76", "time_shift_8", "note_off_76", "time_shift_4", "note_on_71", "note_on_74", "note_on_83", "time_shift_4", "note_on_52", "note_on_55", "time_shift_56", "note_off_56", "time_shift_29", "note_off_76", "time_shift_4", "note_on_71", "time_shift_13", "note_on_48", "note_on_55", "time_shift_169", "note_on_74", "time_shift_358", "note_off_74", "time_shift_49", "note_off_88", "time_shift_43", "note_on_74", "time_shift_57", "note_off_67", "time_shift_790", "note_on_74", "time_shift_94", "note_off_76", "time_shift_94", "note_off_71", "time_shift_2", "note_on_83", "time_shift_4", "note_on_72", "time_shift_13", "note_on_38", "time_shift_9", "note_off_55", "time_shift_21", "note_off_74", "time_shift_4", "note_off_55", "time_shift_8", "note_off_71", "time_shift_8", "note_off_31", "note_on_60", "note_on_76", "time_shift_344", "note_off_38", "time_shift_8", "note_on_71", "note_on_83", "time_shift_2", "note_on_43", "time_shift_10", "note_on_55", "time_shift_14", "note_off_55", "time_shift_2", "note_on_79", "time_shift_2", "note_off_84", "time_shift_100", "note_off_71", "note_off_72", "note_off_76", "time_shift_4", "note_off_79", "time_shift_76", "note_off_67", "time_shift_20", "note_off_52", "time_shift_90", "note_on_72", "time_shift_11", "note_on_76", "time_shift_4", "note_on_35", "time_shift_4", "note_on_36", "note_on_60", "note_on_64", "note_on_72", "note_on_76", "time_shift_2", "note_off_55", "note_off_60", "note_on_64", "note_on_75", "time_shift_85", "note_off_64", "time_shift_4", "note_off_72", "time_shift_4", "note_off_48", "time_shift_133", "note_off_72", "time_shift_4", "note_off_67", "time_shift_20", "note_on_71", "time_shift_112", "note_off_67", "time_shift_56", "note_on_64", "time_shift_113", "note_off_64", "note_off_79", "time_shift_4", "note_off_55", "note_off_64", "time_shift_160", "note_off_55", "time_shift_12", "note_off_43", "time_shift_119", "note_on_79", "time_shift_2", "note_on_31", "note_on_59", "note_on_71", "note_on_74", "note_on_86", "time_shift_4", "note_on_43", "note_on_59", "time_shift_69", "note_off_33", "note_off_71", "note_off_72", "time_shift_8", "note_on_43", "note_on_67", "time_shift_21", "note_off_57", "note_off_64", "note_off_67", "note_off_79", "time_shift_39", "note_on_59", "note_on_64", "time_shift_53", "note_off_31", "time_shift_179", "note_off_64", "note_on_31", "time_shift_64", "note_off_59", "time_shift_24", "note_off_64", "time_shift_4", "note_on_31", "note_on_59", "note_on_59", "note_on_59", "note_on_62", "note_on_64", "note_on_67", "note_on_74", "note_on_79", "time_shift_9", "note_off_31", "time_shift_20", "note_off_83", "time_shift_4", "note_off_55", "note_off_59", "note_off_64", "note_off_67", "note_off_79", "time_shift_4", "note_on_59", "note_on_62", "note_on_67", "time_shift_4", "note_on_31", "note_on_59", "note_on_74", "note_on_79", "time_shift_30", "note_on_38", "time_shift_106", "note_off_83", "time_shift_12", "note_off_67", "note_off_79", "note_off_74", "time_shift_59", "note_off_31", "time_shift_28", "note_on_83", "time_shift_4", "note_on_69", "time_shift_4", "note_on_55", "time_shift_222", "note_off_59", "time_shift_14", "note_on_71", "note_on_74", "time_shift_2", "note_on_62", "time_shift_38", "note_off_83", "note_off_83", "time_shift_4", "note_off_59", "time_shift_8", "note_off_67", "time_shift_4", "note_off_86", "time_shift_8", "note_on_43", "time_shift_422", "note_on_60", "note_on_64", "note_on_71", "note_on_74", "time_shift_4", "note_on_31", "time_shift_8", "note_on_74", "time_shift_18", "note_off_55", "note_on_33", "note_off_55", "time_shift_62", "note_off_69", "time_shift_12", "note_off_67", "time_shift_8", "note_off_31", "time_shift_140", "note_off_43", "time_shift_112", "note_off_35", "time_shift_103", "note_on_40", "time_shift_114", "note_on_59", "time_shift_4", "note_off_74", "time_shift_8", "note_off_67", "note_off_71", "time_shift_22", "note_on_43", "note_on_74", "note_on_79", "time_shift_4", "note_off_48", "note_off_62", "note_on_84", "time_shift_77", "note_on_64", "time_shift_11", "note_on_59", "note_on_64", "note_on_67", "time_shift_16", "note_off_74", "time_shift_43", "note_off_60", "time_shift_22", "note_off_64", "note_off_64", "time_shift_215", "note_on_62", "time_shift_305", "note_on_74", "time_shift_195", "note_off_64", "note_off_67", "note_off_71", "note_off_72", "time_shift_8", "note_off_64", "note_off_74", "time_shift_4", "note_off_74", "time_shift_80", "note_off_76", "time_shift_16", "note_off_43", "time_shift_30", "note_off_64", "time_shift_16", "note_on_55", "note_on_67", "note_on_71", "note_on_74", "time_shift_153", "note_off_55", "time_shift_16", "note_off_40", "time_shift_62", "note_off_67", "time_shift_30", "note_off_76", "time_shift_8", "note_off_74", "time_shift_44", "note_off_74", "time_shift_8", "note_off_67", "time_shift_4", "note_off_79", "time_shift_235", "note_off_63", "time_shift_16", "note_off_55", "note_on_59", "time_shift_8", "note_off_41", "time_shift_14", "note_off_71", "time_shift_26", "note_on_43", "note_on_62", "time_shift_174", "note_on_71", "time_shift_59", "note_on_31", "note_on_69", "time_shift_13", "note_on_74", "time_shift_4", "note_on_74", "note_on_74", "note_on_86", "time_shift_4", "note_on_74", "time_shift_8", "note_on_62", "time_shift_8", "note_off_71", "note_off_74", "note_off_74", "note_off_88", "time_shift_4", "note_off_62", "time_shift_91", "note_on_62", "note_on_67", "note_on_71", "time_shift_4", "note_on_67", "time_shift_2", "note_off_76", "note_on_71", "note_on_74", "note_on_86", "note_on_84", "note_on_83", "note_on_86", "time_shift_71", "note_on_38", "time_shift_26", "note_off_67", "time_shift_12", "note_off_76", "time_shift_8", "note_off_67", "note_off_67", "time_shift_19", "note_off_71", "note_off_62", "note_off_79", "time_shift_8", "note_off_76", "time_shift_15", "note_off_62", "time_shift_15", "note_on_81", "time_shift_46", "note_on_64", "note_on_50", "note_off_64", "time_shift_76", "note_on_38", "time_shift_8", "note_off_74", "time_shift_124", "note_off_72", "time_shift_8", "note_off_74", "time_shift_40", "note_off_74", "time_shift_8", "note_off_79", "note_off_83", "time_shift_8", "note_off_38", "time_shift_16", "note_on_67", "note_on_72", "note_on_67", "note_on_88", "time_shift_8", "note_off_67", "note_off_67", "time_shift_36", "note_off_76", "time_shift_247", "note_off_45", "time_shift_2", "note_on_71", "note_on_79", "time_shift_8", "note_off_72", "time_shift_4", "note_on_88", "time_shift_8", "note_off_62", "time_shift_8", "note_off_67", "time_shift_4", "note_off_73", "time_shift_8", "note_on_45", "time_shift_5", "note_on_67", "note_on_79", "time_shift_167", "note_off_79", "time_shift_8", "note_off_67", "note_on_74", "time_shift_5", "note_off_67", "time_shift_2", "note_on_71", "note_on_73", "time_shift_8", "note_off_44", "note_on_78", "time_shift_2", "note_on_50", "time_shift_2", "note_off_67", "time_shift_2", "note_off_59", "note_off_91", "time_shift_2", "note_on_69", "time_shift_4", "note_on_74", "time_shift_21", "note_off_67", "note_off_68", "note_off_73", "time_shift_13", "note_on_62", "time_shift_16", "note_on_67", "note_on_68", "note_on_73", "time_shift_72", "note_off_67", "time_shift_12", "note_off_71", "time_shift_84", "note_off_65", "time_shift_5", "note_off_70", "time_shift_24", "note_off_31", "time_shift_4", "note_off_74", "time_shift_24", "note_off_57", "time_shift_113", "note_on_31", "note_on_67", "note_on_71", "time_shift_187", "note_off_67", "time_shift_22", "note_on_67", "time_shift_20", "note_on_86", "time_shift_16", "note_off_67", "time_shift_41", "note_off_38", "time_shift_8", "note_off_67", "time_shift_40", "note_off_67", "time_shift_60", "note_on_36", "time_shift_22", "note_on_91", "time_shift_2", "note_on_64", "note_on_76", "time_shift_129", "note_on_24", "time_shift_49", "note_off_64", "time_shift_9", "note_on_64", "time_shift_191", "note_off_76", "time_shift_9", "note_on_64", "note_on_72", "note_on_87", "note_on_88", "note_on_88", "time_shift_33", "note_off_67", "time_shift_13", "note_off_72", "note_off_80", "time_shift_4", "note_off_76", "time_shift_168", "note_off_79", "time_shift_20", "note_on_77", "time_shift_95", "note_off_72", "time_shift_8", "note_on_55", "time_shift_32", "note_on_71", "time_shift_5", "note_off_74", "time_shift_13", "note_off_67", "time_shift_132", "note_on_64", "time_shift_2", "note_off_72", "time_shift_2", "note_on_60", "note_on_79", "note_on_88", "time_shift_203", "note_off_76", "time_shift_102", "note_off_55", "time_shift_78", "note_off_64", "time_shift_8", "note_off_76", "time_shift_8", "note_off_88", "time_shift_8", "note_off_55", "note_off_76", "time_shift_4", "note_on_64", "time_shift_244", "note_off_36", "time_shift_57", "note_off_60", "time_shift_5", "note_off_76", "time_shift_42", "note_on_55", "note_on_57", "time_shift_8", "note_on_60", "note_on_67", "time_shift_48", "note_off_55", "note_off_77", "note_on_81", "time_shift_28", "note_off_60", "time_shift_1000", "time_shift_25", "note_off_76", "note_on_64", "note_on_76", "time_shift_2", "note_on_64", "note_on_67", "note_on_77", "time_shift_2", "note_off_64", "time_shift_14", "note_off_76", "time_shift_22", "note_off_64", "time_shift_12", "note_off_72", "note_off_76", "time_shift_8", "note_on_88", "time_shift_8", "note_on_33", "note_on_60", "note_on_69", "time_shift_8", "note_off_55", "note_on_64", "note_on_64", "note_on_76", "note_on_76", "note_on_81", "time_shift_92", "note_off_72", "time_shift_4", "note_off_64", "time_shift_2", "note_off_64", "time_shift_4", "note_off_76", "time_shift_8", "note_off_76", "time_shift_17", "time_shift_66", "note_off_88", "note_on_79", "time_shift_119", "note_off_33", "time_shift_37", "note_off_56", "time_shift_5", "note_off_79", "time_shift_8", "note_on_55", "note_on_60", "note_on_64", "time_shift_2", "note_on_43", "note_on_59", "note_on_67", "note_on_67", "note_on_72", "note_on_71", "note_on_79", "note_on_76", "note_on_79", "note_on_83", "note_on_83", "time_shift_5", "note_off_64", "note_off_74", "time_shift_8", "note_off_88", "time_shift_25", "note_off_67", "note_off_79", "time_shift_120", "note_off_31", "note_off_35", "time_shift_85", "note_off_67", "note_off_76", "note_off_76", "time_shift_4", "note_on_28", "note_on_64", "note_on_69", "note_on_76", "note_on_76", "note_on_76", "note_on_79", "time_shift_227", "note_off_76", "time_shift_20", "note_off_71", "time_shift_29", "note_off_76", "time_shift_122", "note_off_76", "note_off_76", "time_shift_4", "note_off_59", "note_on_56", "note_on_57", "note_on_64", "note_on_69", "note_on_76", "note_on_76", "note_on_76", "time_shift_67", "note_on_71", "time_shift_179", "note_off_68", "time_shift_8", "note_off_64", "note_off_71", "time_shift_4", "note_on_83", "time_shift_8", "note_off_76", "note_on_72", "note_on_76", "time_shift_307", "note_off_64", "note_off_76", "time_shift_8", "note_off_76", "time_shift_9", "note_off_26", "time_shift_30", "note_off_73", "time_shift_35", "note_off_76", "time_shift_25", "note_off_69", "time_shift_125", "note_off_72", "time_shift_8", "note_on_62", "note_on_64", "note_on_66", "note_on_74", "note_on_86", "time_shift_21", "note_off_81", "time_shift_128", "note_on_71", "time_shift_12", "note_off_76", "note_on_76", "note_on_79", "note_on_79", "time_shift_14", "note_off_64", "note_on_67", "time_shift_55", "note_off_67", "note_off_72", "note_off_83", "time_shift_31", "note_off_31", "time_shift_62", "note_on_59", "time_shift_56", "note_off_67", "time_shift_151", "note_off_67", "time_shift_28", "note_off_79", "time_shift_26", "note_off_59", "time_shift_48", "note_on_59", "note_on_66", "note_on_74", "time_shift_8", "note_on_36", "note_on_67", "note_on_76", "note_on_79", "note_on_88", "note_off_81", "time_shift_2", "note_on_91", "time_shift_2", "note_off_74", "time_shift_8", "note_on_74", "time_shift_53", "note_off_55", "time_shift_200", "note_off_67", "note_off_71", "note_off_74", "time_shift_44", "note_off_55", "time_shift_2", "note_on_69", "time_shift_11", "note_on_66", "time_shift_2", "note_on_67", "note_off_47", "note_off_67", "time_shift_131", "note_off_79", "time_shift_13", "note_off_66", "time_shift_73", "note_off_60", "time_shift_27", "note_off_31", "time_shift_45", "note_on_55", "note_on_59", "note_on_59", "note_on_62", "note_on_75", "time_shift_2", "note_off_71", "time_shift_16", "note_off_63", "note_on_66", "time_shift_11", "note_off_55", "time_shift_2", "note_off_55", "time_shift_2", "note_off_38", "note_on_31", "note_on_52", "note_on_55", "note_off_66", "time_shift_14", "note_off_59", "note_off_67", "time_shift_116", "note_off_53", "time_shift_8", "note_on_55", "note_on_57", "note_on_60", "note_on_64", "note_on_64", "time_shift_288", "note_off_64", "time_shift_52", "note_off_72", "time_shift_25", "note_off_55", "time_shift_84", "note_off_64", "time_shift_18", "note_on_45", "note_on_60", "note_on_65", "note_on_69", "time_shift_46", "note_on_60", "time_shift_8", "note_off_57", "note_off_60", "time_shift_75", "note_off_57", "time_shift_62", "note_off_33", "time_shift_107", "note_on_36", "note_on_48", "time_shift_13", "note_on_59", "note_on_64", "time_shift_84", "note_off_64", "note_off_64", "time_shift_8", "note_on_64", "time_shift_2", "note_off_55", "note_off_64", "time_shift_2", "note_off_57", "note_off_43", "note_on_33", "note_on_55", "note_on_60", "note_on_64", "time_shift_16", "note_off_60", "time_shift_129", "note_on_76", "time_shift_17", "note_off_67", "time_shift_8", "note_off_60", "note_on_54", "time_shift_157", "note_off_59", "time_shift_50", "note_off_55", "time_shift_32", "note_off_64", "time_shift_8", "note_off_60", "note_off_64", "time_shift_8", "note_off_57", "time_shift_69", "note_on_55", "note_on_60", "note_on_62", "note_on_60", "time_shift_47", "note_off_60", "note_off_62", "time_shift_8", "note_off_76", "time_shift_75", "note_off_36", "time_shift_17", "note_on_38", "note_on_55", "note_on_60", "note_on_65", "time_shift_69", "note_off_36", "time_shift_8", "note_on_36", "note_on_53", "time_shift_229", "note_off_58", "time_shift_107", "note_off_36", "note_off_65", "note_on_48", "note_on_65", "time_shift_8", "note_on_31", "note_on_60", "time_shift_438", "note_off_36", "time_shift_41", "note_off_48", "time_shift_8", "note_off_60", "time_shift_116", "note_on_38", "note_on_50", "note_on_53", "time_shift_2", "note_on_53", "note_on_60", "time_shift_8", "note_off_65", "time_shift_8", "note_off_77", "time_shift_17", "note_off_38", "note_off_60", "time_shift_4", "note_off_60", "note_off_65", "note_off_62", "time_shift_17", "note_on_66", "time_shift_1", "note_off_60", "time_shift_17", "note_off_43", "time_shift_73", "note_off_41", "note_off_60", "time_shift_44", "note_on_43", "note_on_62", "note_on_62", "note_on_62", "note_on_66", "note_on_66", "note_on_69", "note_on_69", "time_shift_38", "note_off_65", "time_shift_17", "note_off_62", "note_off_66", "note_off_64", "note_off_67", "note_off_66", "note_off_69", "time_shift_2", "note_off_38", "note_on_63", "note_on_66", "note_on_69", "note_on_67", "time_shift_2", "note_off_66", "note_off_66", "note_off_66", "note_off_69", "time_shift_68", "note_off_66", "time_shift_53", "note_on_64", "note_on_64", "note_on_67", "note_on_68", "time_shift_2", "note_on_66", "note_on_67", "time_shift_8", "note_on_43", "time_shift_43", "note_off_64", "time_shift_8", "note_off_69", "time_shift_95", "note_off_60", "time_shift_54", "note_on_64", "time_shift_13", "note_on_60", "time_shift_8", "note_off_57", "time_shift_8", "note_off_60", "note_off_64", "time_shift_8", "note_off_64", "time_shift_4", "note_off_67", "time_shift_44", "note_off_67", "note_on_64", "time_shift_2", "note_off_31", "note_off_64", "time_shift_19", "note_off_79", "time_shift_26", "note_off_78", "time_shift_44", "note_off_62", "time_shift_26", "note_off_48", "time_shift_8", "note_off_55", "time_shift_8", "note_off_80", "time_shift_2", "note_off_67", "time_shift_6", "note_off_64", "time_shift_53", "note_on_38", "note_on_57", "note_on_50", "note_on_62", "note_on_62", "note_on_62", "note_on_66", "note_on_67", "note_on_69", "time_shift_13", "note_off_67", "time_shift_11", "note_off_50", "note_off_57", "note_off_62", "note_off_62", "note_off_66", "note_off_69", "time_shift_2", "note_off_66", "note_off_66", "time_shift_8", "note_off_43", "note_off_57", "time_shift_16", "note_off_62", "time_shift_9", "note_off_66", "time_shift_47", "note_on_76", "time_shift_59", "note_off_70", "time_shift_2", "note_on_50", "note_on_55", "note_on_59", "note_on_62", "note_on_62", "time_shift_5", "note_on_62", "note_on_67", "time_shift_42", "note_on_62", "time_shift_8", "note_on_43", "time_shift_29", "note_off_62", "note_on_64", "time_shift_5", "note_on_59", "time_shift_74", "note_off_76", "time_shift_2", "note_off_50", "time_shift_8", "note_off_59", "time_shift_29", "note_off_62", "time_shift_2", "note_on_55", "time_shift_16", "note_off_50", "time_shift_17", "note_on_59", "time_shift_8", "note_on_62", "note_on_67", "note_on_71", "note_on_74", "time_shift_7", "note_off_55", "note_off_66", "note_off_67", "time_shift_8", "note_off_66", "time_shift_4", "note_off_71", "time_shift_13", "note_on_67", "time_shift_4", "note_off_59", "time_shift_19", "note_off_59", "note_off_80", "time_shift_2", "note_off_66", "time_shift_138", "note_off_59", "time_shift_60", "note_on_59", "note_on_62", "note_on_67", "note_on_71", "note_on_74", "note_on_74", "time_shift_17", "note_on_50", "time_shift_14", "note_off_67", "time_shift_83", "note_off_43", "note_on_38", "time_shift_64", "note_off_65", "time_shift_4", "note_off_74", "time_shift_44", "note_off_67", "time_shift_61", "note_on_59", "note_on_62", "note_on_72", "time_shift_67", "note_off_38", "time_shift_54", "note_off_48", "note_off_59", "note_off_67", "time_shift_2", "note_off_78", "time_shift_81", "note_on_31", "note_on_59", "note_on_62", "note_on_62", "note_on_62", "note_on_67", "note_on_67", "note_on_67", "time_shift_8", "note_off_31", "time_shift_42", "note_off_55", "time_shift_4", "note_off_67", "note_off_67", "time_shift_16", "note_off_59", "note_off_71", "time_shift_8", "note_on_55", "note_on_59", "note_on_62", "note_on_64", "note_on_67", "time_shift_16", "note_off_55", "note_on_28", "note_on_64", "note_on_67", "time_shift_239", "note_on_67", "time_shift_70", "note_off_43", "time_shift_37", "note_off_64", "note_off_67", "time_shift_4", "note_off_67", "time_shift_4", "note_off_59", "note_off_69", "time_shift_36", "note_on_59", "note_on_59", "note_on_62", "note_on_67", "time_shift_79", "note_off_62", "note_off_67", "time_shift_4", "note_on_62", "note_on_66", "time_shift_8", "note_on_67", "time_shift_26", "note_off_55", "time_shift_4", "note_off_59", "note_off_59", "note_off_62", "note_off_67", "note_off_67", "time_shift_4", "note_on_59", "note_on_67", "note_on_71", "time_shift_202", "note_off_67", "time_shift_288", "note_on_53", "time_shift_27", "note_off_59", "time_shift_12", "note_on_55", "time_shift_8", "note_on_59", "time_shift_190", "note_off_55", "time_shift_23", "note_on_67", "time_shift_18", "note_off_67", "time_shift_17", "note_off_59", "note_off_59", "time_shift_5", "note_on_59", "note_on_62", "note_on_66", "note_on_74", "time_shift_8", "note_off_55", "note_off_59", "note_off_62", "time_shift_26", "note_off_65", "note_off_65", "time_shift_2", "note_on_37", "note_off_59", "note_off_61", "time_shift_164", "note_on_55", "note_on_59", "note_on_59", "note_on_62", "note_on_62", "note_on_67", "note_on_71", "note_on_74", "time_shift_136", "note_off_55", "time_shift_23", "note_off_59", "note_off_64", "time_shift_13", "note_off_59", "note_off_67", "time_shift_11", "note_on_62", "time_shift_17", "note_on_55", "note_on_71", "time_shift_379", "note_on_86", "time_shift_2", "note_on_62", "note_on_67", "time_shift_66", "note_off_79", "time_shift_41", "note_off_66", "time_shift_10", "note_off_67", "time_shift_141", "note_off_55", "note_off_55", "note_off_64", "time_shift_31", "note_on_59", "note_on_62", "note_on_62", "note_on_67", "time_shift_111", "time_shift_119", "note_off_59", "note_off_64", "note_off_62", "note_off_67", "note_off_67", "time_shift_4", "note_off_71", "time_shift_29", "note_off_38", "note_off_55", "note_off_59", "note_off_50", "note_off_57", "note_off_62", "note_on_50", "note_on_55", "note_on_59", "note_on_62", "note_on_38", "note_on_55", "note_on_55", "note_on_59", "note_on_64", "time_shift_258", "note_off_55", "time_shift_35", "note_off_55", "note_off_62", "note_off_64", "time_shift_25", "note_off_43", "time_shift_44", "note_off_55", "note_off_59", "note_on_28", "note_on_57", "note_on_62", "note_on_62", "note_on_62", "note_on_66", "note_on_71", "time_shift_231", "note_off_62", "note_off_69", "time_shift_8", "note_off_74", "time_shift_189", "note_off_33", "time_shift_147", "note_on_38", "time_shift_128", "note_off_62", "note_off_66", "note_off_71", "time_shift_112", "note_on_59", "note_on_70", "time_shift_69", "note_on_74", "time_shift_133", "note_off_57", "time_shift_8", "note_off_62", "time_shift_136", "note_off_40", "time_shift_4", "note_on_36", "time_shift_96", "note_on_57", "time_shift_212", "note_off_36", "time_shift_8", "note_off_74", "time_shift_8", "note_on_36", "note_on_81", "time_shift_168", "note_off_26", "time_shift_36", "note_off_38", "time_shift_13", "note_on_33", "note_on_59", "note_on_64", "time_shift_4", "note_off_64", "time_shift_22", "note_off_64", "time_shift_131", "note_off_57", "time_shift_33", "note_on_71", "time_shift_4", "note_off_40", "time_shift_25", "note_off_79", "time_shift_23", "note_on_41", "time_shift_9", "note_on_48", "note_on_79", "time_shift_35", "note_off_74", "time_shift_130", "note_off_43", "time_shift_25", "note_on_96", "time_shift_101", "note_on_86", "time_shift_52", "note_off_41", "time_shift_82", "note_off_76", "time_shift_17", "note_off_78", "time_shift_8", "note_off_89", "time_shift_70", "note_on_79", "note_on_80", "time_shift_2", "note_on_79", "time_shift_17", "note_off_79", "time_shift_187", "note_on_74", "time_shift_61", "note_off_38", "time_shift_97", "note_off_75", "time_shift_67", "note_off_81", "time_shift_5", "note_on_69", "time_shift_17", "note_off_86", "time_shift_5", "note_on_35", "time_shift_69", "note_off_71", "time_shift_46", "note_off_74", "time_shift_52", "note_off_67", "time_shift_31", "note_off_72", "time_shift_40", "note_on_76", "time_shift_4", "note_on_69", "time_shift_2", "note_on_66", "note_on_69", "note_on_74", "time_shift_44", "note_off_69", "time_shift_8", "note_off_66", "note_off_68", "time_shift_16", "note_off_69", "time_shift_4", "note_on_38", "time_shift_212", "note_on_74", "time_shift_9", "note_on_62", "time_shift_2", "note_off_62", "note_off_66", "time_shift_8", "time_shift_199", "note_on_62", "time_shift_16", "note_off_98", "time_shift_12", "note_off_62", "note_off_62", "time_shift_12", "note_off_74", "time_shift_19", "note_on_74", "time_shift_90", "note_off_50", "note_off_62", "note_off_66", "note_off_67", "time_shift_42", "note_off_74", "time_shift_197", "note_off_38", "note_off_76", "time_shift_4", "note_on_62", "note_on_67", "note_on_74", "time_shift_86", "note_off_26", "time_shift_4", "note_on_62", "time_shift_180", "note_off_62", "time_shift_24", "note_off_62", "note_on_67", "time_shift_152", "note_off_67", "time_shift_2", "note_on_67", "time_shift_114", "note_off_74", "time_shift_39", "note_off_67", "time_shift_50", "note_off_79", "time_shift_69", "note_on_31", "note_on_59", "note_on_64", "note_on_71", "time_shift_53", "note_off_71", "time_shift_32", "note_off_52", "time_shift_18", "note_off_62", "time_shift_50", "note_on_43", "note_on_55", "note_on_59", "time_shift_4", "note_on_62", "time_shift_92", "note_off_62", "time_shift_200", "note_on_62", "time_shift_121", "note_off_31", "time_shift_9", "note_off_57", "time_shift_22", "note_off_62", "time_shift_39", "note_on_38", "time_shift_25", "note_off_38", "note_on_41", "note_on_81", "note_on_93", "time_shift_35", "note_off_38", "time_shift_4", "note_on_57", "time_shift_1", "note_off_41", "time_shift_64", "note_on_36", "time_shift_49", "note_on_88", "time_shift_194", "note_off_38", "time_shift_28", "note_on_62", "time_shift_159", "note_off_61", "time_shift_13", "note_off_62", "time_shift_111", "note_on_74", "time_shift_95", "note_off_62", "time_shift_100", "note_on_55", "time_shift_8", "note_off_36", "note_off_55", "time_shift_8", "note_off_79", "time_shift_4", "note_off_43", "time_shift_4", "note_on_75", "time_shift_4", "note_on_65", "time_shift_8", "note_off_55", "note_on_60", "note_on_65", "note_on_67", "note_on_69", "time_shift_4", "note_on_62", "time_shift_67", "note_off_72", "time_shift_4", "note_off_62", "time_shift_99", "note_off_67", "note_on_60", "time_shift_26", "note_off_59", "note_off_65", "note_off_67", "time_shift_16", "note_on_36", "note_on_60", "note_on_72", "note_on_76", "note_off_96", "note_on_86", "time_shift_68", "note_off_76", "time_shift_36", "note_off_76", "time_shift_4", "note_on_55", "time_shift_4", "note_on_68", "time_shift_333", "note_off_72", "time_shift_12", "note_on_72", "time_shift_2", "note_off_66", "time_shift_107", "note_off_36", "time_shift_47", "note_off_72", "time_shift_46", "note_on_60", "time_shift_19", "note_on_76", "time_shift_70", "note_off_76", "time_shift_89", "note_on_72", "time_shift_29", "note_off_72", "time_shift_38", "note_off_72", "time_shift_14", "note_off_72", "time_shift_14", "note_off_55", "time_shift_4", "note_off_72", "time_shift_4", "note_on_74", "note_on_79", "time_shift_27", "note_off_72", "time_shift_14", "note_on_74", "note_on_81", "time_shift_8", "note_on_74", "time_shift_2", "note_off_74", "time_shift_8", "note_off_88", "time_shift_31", "note_on_59", "time_shift_4", "note_on_62", "time_shift_52", "note_off_79", "time_shift_4", "note_off_62", "time_shift_4", "note_off_59", "time_shift_133", "note_off_38", "note_off_53", "time_shift_14", "note_off_55", "time_shift_8", "note_on_62", "time_shift_68", "note_off_74", "time_shift_8", "note_on_36", "time_shift_81", "note_off_36", "time_shift_59", "note_off_74", "time_shift_8", "note_on_36", "note_on_60", "note_on_64", "note_on_67", "note_on_74", "time_shift_92", "note_off_72", "time_shift_24", "note_off_64", "time_shift_14", "note_off_62", "time_shift_125", "note_off_67", "note_on_35", "note_on_62", "note_on_66", "note_on_74", "note_on_91", "time_shift_2", "note_off_55", "time_shift_40", "note_off_67", "time_shift_108", "note_off_64", "time_shift_17", "note_off_67", "time_shift_137", "note_off_62", "time_shift_18", "note_off_36", "time_shift_8", "note_on_39", "time_shift_132", "note_off_55", "time_shift_37", "note_on_62", "time_shift_17", "note_on_38", "note_on_50", "note_on_62", "time_shift_14", "note_on_50", "note_off_66", "time_shift_75", "note_on_38", "time_shift_8", "note_off_62", "time_shift_13", "note_off_74", "time_shift_40", "note_on_62", "note_on_67", "time_shift_285", "note_off_61", "time_shift_9", "note_on_57", "time_shift_12", "note_off_66", "time_shift_322", "note_off_50", "time_shift_16", "note_off_82", "time_shift_120", "note_off_34", "time_shift_18", "note_on_67", "time_shift_236", "note_on_67", "time_shift_64", "note_off_67", "time_shift_8", "note_on_38", "time_shift_12", "note_off_43", "time_shift_25", "note_off_50", "time_shift_145", "note_on_26", "time_shift_6", "note_on_38", "time_shift_8", "note_on_50", "note_on_67", "time_shift_85", "note_off_71", "time_shift_132", "note_on_71", "time_shift_82", "note_off_67", "time_shift_61", "note_on_79", "time_shift_27", "note_on_81", "time_shift_11", "note_off_71", "note_off_83", "time_shift_29", "note_off_67", "time_shift_41", "note_off_38", "time_shift_29", "note_off_81", "time_shift_28", "note_on_69", "note_on_86", "time_shift_4", "note_off_66", "note_off_67", "note_off_71", "note_on_93", "time_shift_8", "note_off_38", "time_shift_34", "note_off_98", "time_shift_9", "note_on_45", "note_on_64", "note_on_76", "time_shift_2", "note_on_71", "time_shift_8", "note_on_52", "note_on_67", "note_on_74", "note_on_74", "time_shift_115", "note_off_33", "time_shift_18", "note_off_71", "time_shift_2", "note_off_62", "time_shift_44", "note_off_64", "time_shift_8", "note_off_67", "time_shift_170", "note_off_72", "time_shift_54", "note_on_35", "time_shift_71", "note_off_76", "time_shift_90", "note_on_69", "time_shift_148", "note_on_72", "time_shift_86", "note_off_52", "note_on_60", "time_shift_9", "note_on_64", "time_shift_17", "note_off_60", "note_off_64", "time_shift_19", "note_off_59", "note_off_67", "time_shift_36", "note_on_57", "note_on_62", "time_shift_60", "note_off_38", "time_shift_30", "note_off_72", "note_off_74", "time_shift_4", "note_off_76", "time_shift_32", "note_off_57", "time_shift_8", "note_off_57", "time_shift_37", "note_off_76", "time_shift_4", "note_on_35", "note_on_62", "note_on_63", "note_on_66", "note_on_82", "note_on_86", "time_shift_4", "note_on_35", "time_shift_12", "note_on_63", "time_shift_126", "note_off_71", "time_shift_112", "note_on_66", "time_shift_101", "note_off_78", "time_shift_4", "note_on_71", "note_on_84", "time_shift_38", "note_off_89", "time_shift_33", "note_off_39", "time_shift_17", "note_off_71", "time_shift_8", "note_off_63", "time_shift_17", "note_off_54", "time_shift_84", "note_off_47", "time_shift_34", "note_off_63", "time_shift_4", "note_off_63", "time_shift_69", "note_off_71", "time_shift_239", "note_on_62", "time_shift_8", "note_on_59", "time_shift_4", "note_on_69", "note_on_73", "time_shift_31", "note_off_74", "note_off_60", "note_off_66", "time_shift_112", "note_on_47", "note_on_59", "note_on_63", "note_on_66", "time_shift_13", "note_off_47", "time_shift_1000", "time_shift_37", "note_off_47", "note_on_69", "time_shift_54", "note_off_54", "time_shift_283", "note_off_54", "time_shift_124", "note_off_64", "note_off_68", "time_shift_8", "note_off_54", "time_shift_17", "note_on_55", "time_shift_8", "note_on_63", "time_shift_17", "note_on_63", "time_shift_47", "note_off_63", "note_off_66", "time_shift_81", "note_on_71", "time_shift_326", "note_off_75", "time_shift_8", "note_on_35", "note_on_63", "note_on_66", "note_on_63", "time_shift_163", "note_off_63", "time_shift_8", "note_on_63", "time_shift_41", "note_off_59", "time_shift_181", "note_off_63", "time_shift_4", "note_off_63", "time_shift_25", "note_on_59", "time_shift_4", "note_on_59", "note_on_60", "note_on_63", "note_on_63", "note_on_63", "note_off_51", "note_off_44", "time_shift_91", "note_off_59", "note_off_63", "time_shift_8", "note_off_59", "note_off_63", "note_off_68", "time_shift_2", "note_off_63", "note_off_63", "time_shift_4", "note_off_66", "time_shift_8", "note_on_63", "time_shift_4", "note_on_61", "note_on_63", "time_shift_12", "note_off_66", "time_shift_17", "note_off_63", "time_shift_5", "note_off_63", "time_shift_1", "note_off_63", "time_shift_4", "time_shift_225", "note_off_27", "note_on_44", "time_shift_68", "note_off_44", "note_on_56", "time_shift_120", "note_off_44", "time_shift_51", "note_off_56", "time_shift_66", "note_on_32", "note_on_56", "note_on_63", "note_on_64", "note_on_63", "note_on_80", "note_on_82", "note_on_82", "time_shift_31", "note_off_68", "time_shift_65", "note_off_75", "time_shift_40", "note_on_75", "time_shift_9", "note_on_75", "time_shift_128", "note_off_39", "time_shift_32", "note_off_63", "time_shift_6", "note_off_72", "time_shift_4", "note_on_55", "time_shift_30", "note_on_63", "time_shift_10", "note_on_32", "note_on_72", "time_shift_32", "note_off_63", "time_shift_79", "note_on_64", "note_off_81", "note_on_72", "time_shift_45", "note_off_63", "time_shift_8", "note_off_72", "time_shift_9", "note_off_51", "time_shift_95", "note_off_56", "time_shift_14", "note_off_60", "note_off_72", "time_shift_8", "note_off_32", "time_shift_8", "note_off_56", "note_off_63", "note_on_48", "note_off_55", "time_shift_209", "note_off_37", "note_on_71", "note_on_79", "note_on_83", "time_shift_8", "note_off_32", "time_shift_4", "note_on_53", "note_on_46", "time_shift_100", "note_off_65", "time_shift_79", "note_on_58", "time_shift_18", "note_off_63", "note_off_72", "time_shift_90", "note_off_70", "time_shift_41", "note_on_55", "time_shift_100", "note_on_56", "note_on_60", "note_on_63", "note_on_67", "note_on_72", "note_on_84", "time_shift_61", "note_off_60", "time_shift_32", "note_on_68", "note_on_72", "time_shift_2", "note_off_55", "time_shift_4", "note_on_63", "time_shift_115", "note_off_63", "note_on_63", "note_on_75", "time_shift_10", "note_off_63", "time_shift_75", "note_on_75", "time_shift_511", "note_on_32", "time_shift_154", "note_off_32", "note_off_41", "time_shift_14", "note_off_60", "note_off_84", "time_shift_4", "note_on_32", "note_on_44", "note_on_60", "note_on_63", "note_on_63", "note_on_72", "note_on_84", "time_shift_105", "note_off_32", "time_shift_11", "note_off_32", "time_shift_157", "note_off_63", "time_shift_18", "note_off_63", "time_shift_4", "note_off_63", "time_shift_14", "note_off_60", "time_shift_25", "note_on_60", "time_shift_4", "note_on_75", "note_on_63", "time_shift_59", "note_off_60", "note_off_63", "note_off_56", "note_off_62", "time_shift_12", "note_off_36", "time_shift_57", "note_on_27", "note_on_44", "time_shift_7", "note_off_32", "note_off_63", "time_shift_48", "note_on_56", "note_on_56", "note_on_60", "note_on_67", "note_on_75", "note_on_75", "time_shift_12", "note_off_60", "note_off_92", "time_shift_4", "note_off_32", "note_off_51", "time_shift_14", "note_off_56", "time_shift_4", "note_off_67", "note_off_72", "note_off_80", "time_shift_7", "note_off_63", "time_shift_59", "note_on_56", "note_on_63", "note_on_63", "note_on_75", "time_shift_109", "note_off_32", "note_off_56", "note_off_63", "time_shift_9", "note_off_56", "note_off_32", "time_shift_245", "note_on_44", "note_on_56", "note_on_75", "note_on_77", "note_on_80", "time_shift_23", "note_off_44", "note_off_52", "time_shift_33", "note_off_68", "time_shift_7", "note_off_75", "note_off_68", "note_off_80", "time_shift_14", "note_off_72", "note_off_80", "note_on_82", "time_shift_7", "note_off_65", "note_off_75", "note_off_46", "note_off_75", "note_off_84", "time_shift_64", "note_off_44", "time_shift_58", "note_on_39", "note_on_39", "note_on_79", "time_shift_161", "note_off_39", "time_shift_86", "note_off_46", "note_off_82", "time_shift_24", "note_on_80", "time_shift_83", "note_off_76", "time_shift_56", "note_off_32", "note_on_30", "time_shift_43", "note_off_39", "time_shift_360", "note_on_29", "note_on_41", "note_on_44", "note_on_58", "note_on_60", "note_on_65", "note_on_72", "note_on_68", "note_on_77", "time_shift_24", "note_off_77", "time_shift_468", "note_off_60", "time_shift_25", "note_off_65", "note_off_68", "time_shift_51", "note_off_29", "time_shift_156", "note_on_56", "note_on_60", "note_on_60", "note_on_63", "note_on_63", "note_on_68", "note_on_72", "note_on_76", "time_shift_3", "note_on_44", "note_on_80", "time_shift_206", "note_off_44", "time_shift_35", "note_off_44", "time_shift_18", "note_off_44", "note_off_60", "note_off_63", "time_shift_19", "note_off_68", "note_off_72", "time_shift_4", "note_off_68", "time_shift_103", "note_on_32", "note_on_44", "note_on_56", "note_on_60", "time_shift_26", "note_on_72", "time_shift_20", "note_off_44", "time_shift_52", "note_off_75", "time_shift_12", "note_off_60", "time_shift_33", "note_on_60", "time_shift_28", "note_off_60", "time_shift_12", "note_off_36", "time_shift_10", "note_off_60", "note_off_72", "time_shift_8", "note_off_104", "time_shift_1", "note_on_32", "note_on_24", "note_on_36", "note_on_60", "note_on_63", "note_off_33", "note_off_48", "time_shift_51", "note_off_63", "time_shift_44", "note_off_60", "note_off_63", "time_shift_29", "note_off_72", "note_off_75", "note_off_92", "note_on_60", "note_on_63", "note_on_72", "note_on_74", "note_on_77", "time_shift_16", "note_off_60", "note_off_60", "time_shift_16", "note_off_72", "time_shift_14", "note_off_72", "time_shift_16", "note_off_60", "time_shift_8", "note_off_63", "note_off_74", "time_shift_28", "note_off_55", "time_shift_37", "note_off_63", "time_shift_31", "note_on_80", "time_shift_12", "note_off_29", "time_shift_184", "note_on_32", "time_shift_229", "note_off_32", "time_shift_157", "note_on_40", "note_on_36", "note_on_64", "note_on_64", "note_on_67", "note_on_72", "note_on_72", "note_on_76", "note_on_76", "note_on_76", "time_shift_333", "note_off_76", "note_off_76", "time_shift_151", "note_on_67", "time_shift_96", "note_off_72", "time_shift_57", "note_off_69", "time_shift_59", "note_off_64", "time_shift_36", "note_off_40", "time_shift_129", "note_on_79", "time_shift_10", "note_off_72", "time_shift_31", "note_on_36", "note_on_64", "note_on_74", "note_on_76", "time_shift_20", "note_on_64", "note_on_76", "note_on_81", "time_shift_117", "note_off_67", "time_shift_95", "note_on_67", "time_shift_116", "note_off_67", "time_shift_288", "note_off_60", "time_shift_5", "note_on_67", "time_shift_5", "note_on_59", "note_on_62", "note_on_67", "note_off_62", "note_off_67", "time_shift_54", "note_on_64", "note_on_68", "time_shift_125", "note_off_64", "note_off_68", "time_shift_38", "note_off_64", "time_shift_218", "note_on_59", "note_on_62", "time_shift_52", "note_off_24", "time_shift_90", "note_on_33", "note_off_69", "time_shift_168", "note_off_60", "time_shift_71", "note_on_76", "time_shift_129", "note_off_78", "time_shift_28", "note_off_33", "note_on_35", "time_shift_60", "note_off_35", "time_shift_13", "note_on_35", "time_shift_39", "note_off_74", "time_shift_130", "note_off_28", "time_shift_64", "note_on_40", "time_shift_30", "note_off_56", "time_shift_3", "note_off_64", "time_shift_19", "note_off_64", "note_off_75", "time_shift_2", "time_shift_60", "note_off_64", "time_shift_68", "note_on_59", "note_on_60", "note_on_67", "time_shift_183", "note_on_28", "note_on_64", "note_on_67", "time_shift_759", "note_off_43", "time_shift_44", "note_off_52", "time_shift_48", "note_off_60", "note_off_64", "note_off_67", "note_off_67", "time_shift_29", "note_off_60", "time_shift_13", "note_on_28", "note_on_59", "note_on_62", "note_on_62", "time_shift_81", "note_off_59", "time_shift_119", "note_off_62", "time_shift_56", "note_off_28", "time_shift_10", "note_on_48", "note_on_62", "time_shift_5", "note_on_62", "note_on_64", "note_on_64", "note_on_67", "note_on_67", "time_shift_47", "note_off_55", "time_shift_14", "note_off_59", "time_shift_91", "note_off_62", "note_off_62", "time_shift_5", "note_off_64", "time_shift_5", "note_on_35", "note_on_59", "note_on_60", "note_on_62", "note_on_64", "time_shift_199", "note_off_64", "time_shift_16", "note_off_62", "time_shift_62", "note_off_59", "note_off_66", "time_shift_65", "note_off_35", "time_shift_17", "note_on_56", "note_on_60", "note_on_64", "time_shift_39", "note_off_56", "note_off_60", "time_shift_2", "note_on_59", "note_on_64", "note_on_64", "time_shift_109", "note_off_59", "note_off_64", "note_on_67", "time_shift_93", "note_off_64", "note_off_64", "note_off_67", "time_shift_40", "note_on_60", "note_on_64", "note_on_64", "time_shift_164", "note_off_60", "time_shift_51", "note_on_59", "time_shift_22", "note_on_59", "note_on_59", "time_shift_74", "note_off_59", "time_shift_21", "note_off_59", "time_shift_12", "note_on_59", "note_on_59", "time_shift_36", "note_off_59", "time_shift_161", "note_on_64", "time_shift_266", "note_off_64", "time_shift_10", "note_off_59", "note_off_67", "time_shift_1", "note_on_54", "time_shift_41", "note_off_59", "time_shift_17", "note_off_59", "time_shift_62", "note_off_72", "time_shift_7", "note_on_56", "note_on_57", "time_shift_62", "note_off_37", "note_off_44", "time_shift_49", "note_on_78", "time_shift_60", "note_off_36", "time_shift_26", "note_off_68", "time_shift_15", "note_on_38", "time_shift_29", "note_off_52", "time_shift_57", "note_on_57", "note_on_69", "time_shift_83", "note_off_57", "time_shift_24", "note_on_60", "time_shift_25", "note_on_64", "time_shift_192", "note_off_69", "time_shift_17", "note_on_40", "time_shift_104", "note_on_72", "time_shift_20", "note_off_69", "time_shift_218", "note_on_68", "time_shift_66", "note_off_60", "time_shift_37", "note_off_64", "time_shift_37", "note_on_59", "time_shift_62", "note_off_72", "time_shift_15", "note_off_57", "time_shift_42", "note_on_59", "note_on_64", "note_on_68", "note_on_79", "time_shift_102", "note_off_28", "time_shift_52", "note_off_71", "time_shift_38", "note_off_28", "note_on_38", "time_shift_58", "note_off_64", "time_shift_31", "note_off_68", "time_shift_22", "note_off_76", "time_shift_2", "note_off_62", "time_shift_154", "note_on_56", "time_shift_4", "note_on_44", "time_shift_112", "note_off_64", "time_shift_20", "note_off_32", "note_on_92", "time_shift_72", "note_off_56", "time_shift_26", "note_on_59", "note_on_59", "note_on_63", "time_shift_51", "note_off_63", "time_shift_212", "note_off_59", "time_shift_28", "note_on_47", "note_on_59", "note_on_63", "note_on_67", "time_shift_30", "note_off_63", "time_shift_17", "note_off_59", "time_shift_7", "note_off_63", "time_shift_23", "note_off_22", "note_off_24", "time_shift_155", "note_on_71", "time_shift_38", "note_on_65", "time_shift_205", "note_on_65", "note_off_59", "note_off_63", "note_off_67", "note_on_67", "note_on_71", "time_shift_36", "note_off_68", "note_off_71", "time_shift_18", "note_off_59", "note_on_66", "note_on_71", "note_on_73", "time_shift_76", "note_off_47", "time_shift_24", "note_off_71", "time_shift_42", "note_on_40", "time_shift_112", "note_off_40", "time_shift_17", "note_off_86", "note_on_76", "time_shift_9", "note_off_88", "time_shift_58", "note_on_40", "time_shift_6", "note_off_40", "time_shift_369", "note_off_72", "time_shift_61", "note_on_40", "note_on_64", "time_shift_6", "note_off_64", "time_shift_84", "note_off_28", "time_shift_4", "note_on_76", "time_shift_71", "note_on_40", "time_shift_3", "note_off_28", "note_off_28", "time_shift_12", "note_off_40", "time_shift_112", "note_on_28", "time_shift_138", "note_on_28", "time_shift_11", "note_off_40", "time_shift_28", "note_off_28", "time_shift_129", "note_on_28", "time_shift_11", "note_off_28", "time_shift_71", "note_on_28", "time_shift_12", "note_off_28", "time_shift_181", "note_on_40", "note_on_67", "note_on_67", "time_shift_4", "note_on_69", "time_shift_14", "note_on_40", "time_shift_79", "note_off_40", "time_shift_97", "note_off_40", "time_shift_91", "note_off_67", "note_off_67", "note_off_69", "time_shift_6", "note_on_47", "note_on_66", "note_on_69", "time_shift_53", "note_off_66", "time_shift_21", "note_off_40", "time_shift_98", "note_off_47", "time_shift_105", "note_on_40", "time_shift_1", "note_on_40", "time_shift_337", "note_off_69", "time_shift_442", "note_off_33", "time_shift_52", "note_off_64", "note_on_64", "time_shift_12", "note_off_64", "time_shift_12", "note_off_28", "time_shift_9", "note_on_40", "note_on_64", "note_on_67", "time_shift_8", "note_off_40", "note_on_47", "time_shift_152", "note_off_40", "time_shift_13", "note_on_28", "time_shift_142", "note_off_28", "time_shift_45", "note_off_28", "note_off_40", "note_on_28", "note_on_40", "time_shift_147", "note_off_28", "note_off_40", "time_shift_58", "note_on_28", "note_on_40", "time_shift_243", "note_off_28", "time_shift_129", "note_off_95", "time_shift_20", "note_off_28", "time_shift_56", "note_on_40", "time_shift_343", "note_off_40", "note_on_26", "note_off_78", "time_shift_31", "note_on_83", "note_on_86", "time_shift_14", "note_on_91", "time_shift_9", "note_on_62", "time_shift_187", "note_off_83", "time_shift_19", "note_off_35", "note_on_64", "note_on_72", "time_shift_94", "note_off_85", "time_shift_12", "note_off_86", "time_shift_52", "note_off_64", "time_shift_14", "note_off_28", "time_shift_53", "note_on_28", "time_shift_100", "note_off_28", "time_shift_7", "note_on_35", "time_shift_386", "note_off_28", "time_shift_29", "note_off_64", "time_shift_47", "note_on_56", "note_on_67", "time_shift_3", "note_on_64", "time_shift_45", "note_off_64", "time_shift_7", "note_off_64", "note_off_64", "time_shift_45", "note_on_64", "note_on_64", "note_on_67", "time_shift_2", "note_off_43", "time_shift_11", "note_on_83", "time_shift_9", "note_off_56", "note_off_59", "note_off_64", "note_off_67", "time_shift_26", "note_on_28", "note_on_63", "note_on_67", "note_on_67", "time_shift_9", "note_off_68", "note_on_60", "note_on_67", "time_shift_4", "note_on_36", "time_shift_101", "note_off_67", "time_shift_9", "note_off_60", "note_off_64", "time_shift_26", "note_off_67", "time_shift_12", "note_on_64", "time_shift_9", "note_off_68", "time_shift_48", "note_on_64", "note_on_72", "time_shift_72", "note_off_63", "time_shift_6", "note_off_67", "time_shift_83", "note_off_68", "time_shift_73", "note_off_67", "time_shift_9", "note_off_81", "time_shift_4", "note_on_79", "note_on_84", "time_shift_53", "note_off_64", "note_off_76", "note_on_56", "note_on_60", "time_shift_7", "note_off_60", "time_shift_94", "note_off_32", "time_shift_491", "note_on_36", "note_on_52", "note_on_64", "note_on_64", "note_on_79", "time_shift_258", "note_off_64", "time_shift_17", "note_on_40", "time_shift_29", "note_off_64", "time_shift_17", "note_off_59", "time_shift_55", "note_off_64", "time_shift_13", "note_off_31", "note_off_41", "time_shift_7", "note_on_52", "note_on_60", "note_on_79", "time_shift_3", "note_on_32", "note_on_56", "note_on_60", "note_on_64", "note_on_64", "note_on_66", "time_shift_327", "note_off_64", "time_shift_47", "note_off_56", "note_off_56", "note_off_60", "note_off_64", "note_off_64", "note_on_55", "note_on_59", "note_on_64", "time_shift_54", "note_off_60", "note_off_60", "time_shift_22", "note_off_59", "time_shift_9", "note_off_59", "note_off_64", "time_shift_4", "note_off_68", "time_shift_18", "note_off_28", "note_off_59", "note_off_66", "note_off_66", "note_on_32", "note_on_80", "time_shift_31", "note_on_64", "time_shift_14", "note_off_59", "time_shift_69", "note_off_68", "time_shift_9", "note_off_32", "time_shift_248", "note_off_64", "time_shift_9", "note_on_28", "note_on_37", "note_on_59", "note_on_62", "note_on_62", "note_on_67", "note_on_67", "note_on_71", "note_on_74", "time_shift_36", "note_off_62", "time_shift_20", "note_off_67", "time_shift_16", "note_off_56", "time_shift_18", "note_off_71", "time_shift_27", "note_on_41", "note_on_81", "time_shift_19", "note_on_84", "time_shift_87", "note_off_59", "time_shift_7", "note_off_56", "time_shift_24", "note_on_41", "note_on_59", "note_on_64", "time_shift_75", "note_on_28", "note_on_55", "note_on_59", "note_on_64", "time_shift_9", "note_off_65", "time_shift_18", "note_off_71", "time_shift_36", "note_on_74", "time_shift_379", "note_off_64", "time_shift_109", "note_off_28", "time_shift_9", "note_on_71", "time_shift_56", "note_off_52", "time_shift_114", "note_off_56", "time_shift_18", "note_on_60", "note_on_31", "time_shift_43", "note_off_41", "time_shift_132", "note_off_71", "time_shift_14", "note_off_79", "time_shift_39", "note_on_55", "time_shift_91", "note_on_79", "time_shift_31", "note_off_31", "time_shift_57", "note_off_75", "time_shift_27", "note_on_31", "time_shift_131", "note_off_64", "time_shift_9", "note_off_31", "note_off_60", "time_shift_10", "note_off_79", "note_off_72", "time_shift_40", "note_on_31", "note_on_55", "note_on_74", "note_on_74", "note_on_64", "time_shift_2", "note_on_77", "time_shift_60", "note_off_36", "time_shift_15", "note_off_74", "time_shift_7", "note_off_31", "time_shift_591", "note_on_40", "note_on_83", "time_shift_57", "note_off_77", "time_shift_22", "note_off_55", "time_shift_20", "note_off_28", "note_off_64", "time_shift_30", "note_off_88", "time_shift_31", "note_on_59", "note_on_74", "note_on_79", "time_shift_14", "note_on_55", "note_on_60", "note_on_64", "note_on_67", "time_shift_109", "note_off_64", "note_off_67", "note_off_69", "time_shift_83", "note_off_55", "note_off_57", "note_off_60", "time_shift_189", "note_off_43", "time_shift_48", "note_on_76", "time_shift_90", "note_on_79", "time_shift_7", "note_off_79", "time_shift_47", "note_off_79", "time_shift_62", "note_on_74", "time_shift_16", "note_off_62", "time_shift_1", "note_on_79", "time_shift_2", "note_off_74", "time_shift_11", "note_off_55", "note_on_83", "time_shift_5", "note_on_86", "time_shift_112", "note_off_36", "time_shift_45", "note_off_73", "time_shift_80", "note_on_90", "time_shift_10", "note_off_64", "note_off_67", "time_shift_26", "note_off_71", "time_shift_1", "note_on_31", "note_on_62", "note_on_62", "time_shift_3", "note_on_67", "note_on_71", "note_on_74", "time_shift_40", "note_off_67", "note_on_42", "note_on_59", "note_on_62", "note_on_79", "note_on_74", "time_shift_26", "note_off_36", "note_off_62", "note_off_67", "time_shift_20", "note_off_69", "note_off_74", "time_shift_7", "note_off_59", "note_off_59", "time_shift_29", "note_off_31", "time_shift_17", "note_on_55", "note_on_59", "note_on_59", "note_on_59", "note_on_62", "note_on_64", "note_on_67", "time_shift_6", "note_off_64", "time_shift_1", "note_off_35", "time_shift_161", "note_off_59", "note_off_74", "time_shift_144", "note_on_59", "note_on_67", "note_on_74", "note_on_86", "time_shift_136", "note_off_67", "time_shift_7", "note_off_55", "note_off_62", "time_shift_20", "note_off_43", "time_shift_161", "note_on_55", "note_on_59", "note_on_62", "note_on_67", "note_on_79", "time_shift_10", "note_off_38", "time_shift_237", "note_on_31", "time_shift_229", "note_off_31", "note_off_45", "note_off_55", "note_off_62", "note_off_71", "time_shift_1", "note_off_62", "note_off_71", "time_shift_5", "note_on_62", "time_shift_2", "note_on_55", "note_on_59", "note_on_62", "note_on_67", "time_shift_89", "note_off_67", "time_shift_5", "note_on_43", "time_shift_46", "note_on_40", "note_on_59", "note_on_67", "time_shift_119", "note_off_40", "time_shift_43", "note_off_55", "time_shift_122", "note_off_43", "time_shift_49", "note_off_59", "time_shift_86", "note_on_59", "time_shift_58", "note_off_59", "note_off_62", "time_shift_59", "note_on_62", "time_shift_218", "note_on_59", "note_on_62", "time_shift_23", "note_off_43", "time_shift_130", "note_off_62", "time_shift_13", "note_off_62", "time_shift_91", "note_off_33", "time_shift_38", "note_on_47", "note_on_59", "note_on_62", "note_on_66", "note_on_74", "time_shift_326", "note_off_62", "time_shift_62", "note_off_43", "time_shift_33", "note_on_43", "note_on_79", "note_on_79", "note_on_86", "time_shift_81", "note_off_78", "note_off_92", "note_on_91", "note_on_86", "time_shift_101", "note_off_55", "note_on_71", "time_shift_1000", "time_shift_125", "note_on_52", "time_shift_121", "note_off_55", "time_shift_50", "note_on_71", "time_shift_94", "note_off_71", "time_shift_20", "note_off_59", "time_shift_7", "note_off_86", "time_shift_22", "note_on_86", "time_shift_33", "note_on_81", "time_shift_17", "note_off_81", "time_shift_193", "note_off_71", "time_shift_71", "note_on_28", "note_on_74", "time_shift_78", "note_off_28", "time_shift_15", "note_off_69", "time_shift_17", "note_on_40", "time_shift_161", "note_off_40", "time_shift_123", "note_on_38", "time_shift_267", "note_off_74", "time_shift_17", "note_off_81", "note_on_95", "time_shift_3", "note_on_47", "note_on_62", "note_on_66", "note_on_74", "note_on_86", "time_shift_375", "note_off_78", "time_shift_31", "note_off_74", "time_shift_63", "note_off_74", "time_shift_11", "note_off_74", "time_shift_337", "note_on_74", "note_on_74", "time_shift_72", "note_off_74", "time_shift_39", "note_off_74", "time_shift_11", "note_off_59", "time_shift_3", "note_off_74", "note_off_71", "note_off_74", "note_off_82", "time_shift_69", "note_on_57", "note_on_62", "time_shift_81", "note_on_69", "time_shift_46", "note_off_69", "time_shift_12", "note_off_38", "note_off_54", "time_shift_18", "note_off_62", "time_shift_283", "note_off_78", "time_shift_79", "note_on_33", "note_on_62", "note_on_66", "note_on_74", "note_on_78", "time_shift_2", "note_off_66", "note_off_74", "note_on_35", "time_shift_20", "note_off_35", "time_shift_6", "note_on_38", "note_on_66", "time_shift_78", "note_off_74", "time_shift_3", "note_off_66", "time_shift_30", "note_off_74", "time_shift_31", "note_off_38", "time_shift_211", "note_off_81", "note_on_64", "time_shift_6", "note_on_57", "note_on_62", "note_on_66", "note_on_78", "note_on_82", "time_shift_12", "note_off_93", "note_on_77", "time_shift_35", "note_off_86", "time_shift_13", "note_off_78", "time_shift_267", "note_on_74", "time_shift_28", "note_off_62", "time_shift_54", "note_off_50", "note_off_66", "time_shift_4", "note_off_66", "time_shift_32", "note_off_66", "time_shift_13", "note_off_62", "time_shift_14", "note_off_50", "note_on_35", "note_on_59", "note_on_62", "note_on_69", "time_shift_40", "note_off_35", "time_shift_7", "note_off_83", "time_shift_58", "note_off_78", "time_shift_8", "note_off_74", "note_off_81", "time_shift_1", "note_on_36", "note_on_60", "note_on_74", "time_shift_9", "note_on_81", "note_on_86", "time_shift_32", "note_off_36", "time_shift_44", "note_off_74", "time_shift_75", "note_on_36", "note_on_52", "note_on_55", "note_on_72", "time_shift_239", "note_off_40", "note_off_55", "note_off_64", "time_shift_48", "note_off_71", "time_shift_21", "note_off_36", "time_shift_7", "note_off_74", "time_shift_12", "note_on_40", "note_on_55", "note_on_60", "time_shift_4", "note_on_62", "note_on_71", "note_on_74", "note_on_74", "note_on_86", "time_shift_8", "note_off_86", "time_shift_2", "note_on_57", "note_on_66", "note_on_78", "note_on_83", "time_shift_57", "note_off_79", "time_shift_12", "note_on_69", "note_on_81", "time_shift_33", "note_off_78", "note_off_78", "time_shift_8", "note_off_66", "note_off_74", "time_shift_23", "note_off_69", "time_shift_102", "note_on_74", "note_on_77", "time_shift_18", "note_on_53", "note_on_67", "time_shift_267", "note_on_76", "note_on_91", "note_on_83", "time_shift_77", "note_off_55", "note_off_62", "time_shift_114", "note_off_67", "note_off_86", "time_shift_120", "note_off_55", "time_shift_168", "note_off_74", "time_shift_42", "note_on_74", "note_on_82", "note_on_86", "note_on_74", "time_shift_16", "note_on_71", "note_on_77", "note_on_86", "note_on_84", "time_shift_8", "note_off_75", "time_shift_59", "note_off_74", "note_off_75", "note_off_77", "time_shift_3", "note_off_59", "time_shift_79", "note_on_79", "note_on_91", "time_shift_7", "note_off_83", "time_shift_1", "note_on_74", "time_shift_236", "note_on_55", "time_shift_10", "note_on_59", "time_shift_14", "note_off_55", "time_shift_14", "note_off_59", "time_shift_3", "note_off_74", "time_shift_29", "note_on_74", "time_shift_19", "note_off_66", "time_shift_276", "note_off_74", "note_off_74", "time_shift_9", "note_off_79", "note_on_74", "note_on_79", "time_shift_3", "note_on_62", "time_shift_19", "note_on_74", "time_shift_23", "note_off_71", "time_shift_1", "note_on_59", "time_shift_18", "note_on_74", "note_on_79", "time_shift_3", "note_off_59", "time_shift_16", "note_off_62", "time_shift_70", "note_off_55", "note_off_62", "time_shift_14", "note_off_52", "time_shift_35", "note_off_71", "time_shift_62", "note_off_55", "note_off_62", "note_off_67", "note_on_67", "time_shift_87", "note_off_55", "note_off_59", "note_off_67", "note_off_74", "time_shift_3", "note_on_59", "note_on_62", "note_on_66", "time_shift_70", "note_on_78", "time_shift_1", "note_on_67", "time_shift_54", "note_off_69", "time_shift_3", "note_off_82", "time_shift_3", "note_off_59", "time_shift_3", "note_off_74", "time_shift_3", "note_on_67", "time_shift_1", "note_on_57", "time_shift_7", "note_off_67", "time_shift_33", "note_off_71", "time_shift_18", "note_on_62", "note_on_66", "time_shift_3", "note_on_67", "time_shift_1", "note_on_67", "note_on_62", "note_on_67", "time_shift_3", "note_on_67", "time_shift_3", "note_on_59", "note_on_47", "time_shift_99", "note_off_67", "time_shift_1", "note_off_81", "time_shift_244", "note_on_55", "time_shift_3", "note_off_71", "time_shift_197", "note_off_55", "note_off_59", "note_off_67", "time_shift_53", "note_on_67", "note_on_72", "time_shift_35", "note_off_67", "time_shift_307", "note_off_67", "note_off_67", "note_on_67", "time_shift_24", "note_on_62", "time_shift_239", "note_off_62", "time_shift_7", "note_off_67", "time_shift_7", "note_off_38", "note_off_64", "time_shift_3", "note_on_79", "time_shift_51", "note_on_62", "note_on_65", "note_on_66", "note_on_76", "time_shift_7", "note_on_71", "note_on_78", "time_shift_115", "note_off_55", "note_off_59", "note_off_62", "time_shift_55", "note_off_67", "time_shift_11", "note_on_67", "note_on_71", "time_shift_5", "note_on_59", "note_on_62", "time_shift_3", "note_on_31", "time_shift_64", "note_off_31", "time_shift_43", "note_off_62", "note_off_67", "note_off_74", "note_on_64", "note_on_67", "note_on_71", "time_shift_3", "note_off_62", "note_off_67", "note_off_67", "note_off_72", "time_shift_15", "note_on_64", "note_on_67", "time_shift_3", "note_on_59", "note_on_62", "note_on_67", "note_on_74", "note_on_76", "time_shift_30", "note_off_22", "note_off_35", "time_shift_7", "note_on_62", "time_shift_18", "note_on_67", "note_on_67", "time_shift_12", "note_off_71", "time_shift_7", "note_off_71", "time_shift_9", "note_off_67", "time_shift_30", "note_off_60", "note_off_62", "time_shift_1", "note_off_67", "note_off_67", "time_shift_7", "note_off_75", "time_shift_1", "note_off_67", "time_shift_53", "note_off_62", "time_shift_6", "note_off_67", "time_shift_3", "note_off_72", "time_shift_15", "note_on_74", "time_shift_138", "note_on_40", "time_shift_2", "note_on_62", "time_shift_15", "note_on_74", "time_shift_7", "note_on_55", "time_shift_3", "note_on_64", "time_shift_3", "note_on_67", "note_on_67", "time_shift_63", "note_off_59", "time_shift_69", "note_off_74", "time_shift_15", "note_off_62", "time_shift_27", "note_off_67", "time_shift_26", "note_off_59", "time_shift_3", "note_on_59", "time_shift_1", "note_on_66", "note_on_67", "time_shift_13", "note_on_66", "note_on_79", "time_shift_86", "note_off_67", "note_off_71", "note_off_62", "time_shift_55", "note_off_40", "time_shift_7", "note_on_34", "time_shift_144", "note_on_69", "time_shift_7", "note_off_81", "time_shift_3", "note_on_66", "time_shift_132", "note_off_66", "time_shift_18", "note_off_67", "time_shift_12", "note_off_66", "note_on_62", "time_shift_31", "note_off_62", "time_shift_3", "note_off_40", "time_shift_3", "note_off_67", "time_shift_1", "note_on_71", "time_shift_3", "note_on_64", "time_shift_30", "note_off_73", "time_shift_11", "note_on_71", "time_shift_179", "note_on_74", "time_shift_5", "note_on_83", "time_shift_7", "note_off_74", "time_shift_45", "note_on_31", "note_on_62", "time_shift_115", "note_on_31", "time_shift_113", "note_off_31", "time_shift_23", "note_on_59", "note_on_62", "note_on_67", "note_on_86", "time_shift_79", "note_on_35", "time_shift_23", "note_off_67", "time_shift_26", "note_off_67", "time_shift_7", "note_off_62", "note_off_71", "note_off_83", "time_shift_7", "note_off_59", "note_off_62", "note_on_67", "note_on_74", "time_shift_42", "note_off_67", "time_shift_14", "note_off_74", "time_shift_309", "note_off_74", "time_shift_14", "note_on_71", "time_shift_219", "note_off_74", "time_shift_73", "note_on_59", "note_on_59", "time_shift_82", "note_off_74", "time_shift_57", "note_on_71", "time_shift_9", "note_on_67", "note_on_71", "note_on_78", "note_on_83", "time_shift_88", "note_off_20", "time_shift_17", "note_off_40", "time_shift_22", "note_off_71", "note_on_47", "note_on_69", "time_shift_150", "note_off_71", "time_shift_48", "note_off_71", "time_shift_1", "note_on_40", "time_shift_37", "note_off_57", "time_shift_1", "note_off_59", "time_shift_43", "note_off_74", "time_shift_72", "note_on_50", "note_on_62", "note_on_66", "note_on_71", "time_shift_9", "note_off_38", "time_shift_151", "note_off_71", "note_on_43", "time_shift_96", "note_off_43", "note_off_50", "time_shift_125", "note_on_67", "time_shift_79", "note_on_79", "time_shift_216", "note_on_83", "time_shift_13", "note_off_86", "time_shift_3", "note_off_59", "time_shift_3", "note_off_71", "time_shift_206", "note_off_59", "time_shift_27", "note_on_44", "time_shift_35", "note_off_67", "time_shift_12", "note_off_62", "time_shift_6", "note_off_91", "time_shift_42", "note_on_43", "note_on_74", "note_on_81", "time_shift_57", "note_off_74", "time_shift_18", "note_off_62", "time_shift_21", "note_off_71", "time_shift_10", "note_off_43", "time_shift_614", "note_off_74", "time_shift_70", "note_on_43", "note_on_79", "time_shift_101", "note_off_31", "note_off_57", "note_on_35", "note_on_55", "note_on_62", "note_on_67", "time_shift_56", "note_off_71", "time_shift_33", "note_off_59", "note_off_64", "time_shift_60", "note_off_43", "time_shift_11", "note_on_41", "note_on_53", "note_on_57", "note_on_60", "note_on_71", "time_shift_3", "note_on_69", "time_shift_1", "note_on_67", "time_shift_30", "note_off_69", "time_shift_93", "note_off_41", "time_shift_229", "note_on_65", "time_shift_1", "note_on_48", "time_shift_78", "note_off_69", "time_shift_72", "note_on_53", "time_shift_3", "note_on_60", "time_shift_3", "note_off_48", "time_shift_3", "note_off_41", "note_off_53", "note_off_60", "note_off_65", "time_shift_7", "note_off_53", "note_off_60", "time_shift_3", "note_off_83", "time_shift_3", "note_off_41", "note_off_59", "time_shift_52", "note_on_74", "time_shift_3", "note_on_38", "time_shift_12", "note_on_51", "note_on_65", "time_shift_106", "note_off_38", "time_shift_17", "note_on_38", "time_shift_5", "note_off_50", "time_shift_14", "note_off_57", "time_shift_7", "note_off_50", "time_shift_46", "note_on_51", "time_shift_3", "note_on_38", "note_on_60", "note_on_62", "note_on_66", "note_on_55", "time_shift_3", "note_on_69", "time_shift_199", "note_off_50", "time_shift_140", "note_off_38", "note_off_53", "time_shift_3", "note_off_38", "time_shift_69", "note_off_45", "time_shift_84", "note_off_78", "time_shift_3", "note_off_55", "note_off_60", "note_off_66", "note_off_69", "time_shift_7", "note_off_72", "note_off_38", "note_on_38", "note_on_50", "note_on_62", "note_on_62", "note_on_69", "note_on_69", "note_on_74", "note_on_76", "time_shift_7", "time_shift_367", "note_on_38", "time_shift_70", "note_off_57", "note_off_57", "note_off_62", "note_off_62", "note_off_62", "time_shift_14", "note_on_38", "note_on_50", "note_on_50", "note_on_54", "note_on_57", "note_on_62", "note_on_66", "time_shift_171", "note_off_38", "note_off_66", "time_shift_7", "note_off_57", "time_shift_39", "note_on_38", "note_on_62", "note_on_62", "note_on_66", "time_shift_3", "note_off_50", "note_off_62", "note_off_62", "note_on_60", "note_on_74", "time_shift_35", "note_off_50", "note_on_64", "time_shift_33", "note_off_50", "time_shift_7", "note_on_50", "time_shift_54", "note_off_38", "time_shift_87", "note_on_48", "time_shift_105", "note_off_60", "time_shift_15", "note_on_38", "time_shift_410", "note_off_38", "time_shift_438", "note_off_50", "time_shift_33", "note_on_43", "time_shift_229", "note_off_71", "time_shift_61", "note_on_69", "time_shift_7", "note_off_38", "time_shift_3", "note_off_57", "time_shift_3", "note_on_57", "time_shift_15", "note_off_69", "time_shift_196", "note_off_50", "time_shift_173", "note_off_60", "time_shift_212", "note_on_29", "time_shift_7", "note_on_57", "note_on_48", "note_on_65", "time_shift_64", "note_off_41", "time_shift_37", "note_off_57", "time_shift_4", "note_off_65", "time_shift_7", "note_off_57", "time_shift_3", "note_off_69", "time_shift_7", "time_shift_47", "note_off_45", "time_shift_3", "note_on_40", "time_shift_154", "note_on_40", "note_on_67", "time_shift_7", "note_on_52", "time_shift_16", "note_off_40", "time_shift_185", "note_on_40", "note_on_52", "time_shift_15", "note_off_40", "note_off_40", "time_shift_11", "note_on_40", "time_shift_6", "note_off_52", "time_shift_48", "note_off_56", "time_shift_10", "note_on_40", "note_on_52", "time_shift_189", "note_off_40", "time_shift_35", "note_on_40", "time_shift_36", "note_off_52", "time_shift_52", "note_on_67", "time_shift_21", "note_off_40", "time_shift_283", "note_on_45", "time_shift_121", "note_off_40", "time_shift_243", "note_on_40", "note_on_55", "note_off_40", "note_off_40", "note_off_52", "time_shift_33", "note_off_38", "note_off_52", "note_on_40", "note_on_40", "note_on_40", "note_on_40", "note_on_47", "note_on_52", "time_shift_85", "note_off_47", "note_off_40", "time_shift_4", "note_on_40", "time_shift_250", "note_off_40", "note_off_40", "note_off_40", "note_off_52", "time_shift_129", "note_on_40", "note_on_52", "time_shift_93", "note_off_40", "note_off_52", "time_shift_56", "note_on_40", "note_on_40", "time_shift_99", "note_off_40", "note_off_40", "time_shift_71", "note_on_40", "time_shift_1", "note_off_40", "note_off_40", "time_shift_14", "note_off_28", "note_on_40", "note_on_40", "time_shift_90", "note_off_40", "time_shift_29", "note_on_40", "note_on_40", "time_shift_37", "note_off_40", "note_on_40", "time_shift_7", "note_on_56", "time_shift_204", "note_off_40", "time_shift_116", "note_off_40", "time_shift_44", "note_on_49", "time_shift_3", "note_on_52", "time_shift_3", "note_off_55", "note_off_56", "time_shift_3", "note_off_62", "time_shift_19", "note_on_56", "note_on_56", "time_shift_5", "note_on_32", "time_shift_70", "note_off_56", "time_shift_7", "note_on_59", "time_shift_12", "note_off_52", "time_shift_141", "note_off_56", "time_shift_7", "note_off_64", "time_shift_3", "note_on_59", "time_shift_3", "note_on_45", "note_on_59", "note_on_64", "time_shift_6", "note_off_59", "note_on_59", "time_shift_7", "note_off_64", "time_shift_153", "note_off_64", "time_shift_51", "note_on_64", "time_shift_161", "note_off_56", "note_off_64", "time_shift_28", "note_on_52", "time_shift_7", "note_off_52", "time_shift_15", "note_on_64", "time_shift_7", "note_on_52", "note_on_56", "time_shift_4", "note_off_56", "time_shift_7", "note_off_59", "note_off_64", "time_shift_7", "note_off_52", "note_on_40", "note_on_47", "note_on_52", "time_shift_169", "note_off_56", "time_shift_7", "note_off_52", "note_off_56", "note_on_52", "time_shift_7", "note_on_64", "time_shift_15", "note_on_59", "time_shift_7", "note_on_59", "time_shift_116", "note_off_52", "note_off_50", "note_off_35", "note_off_52", "time_shift_3", "note_off_59", "time_shift_24", "note_off_28", "time_shift_7", "note_off_52", "time_shift_14", "note_off_64", "time_shift_7", "note_on_52", "note_on_52", "note_on_59", "time_shift_7", "note_off_69", "time_shift_3", "note_on_52", "note_on_59", "note_on_64", "time_shift_7", "note_off_52", "time_shift_245", "note_off_41", "time_shift_7", "note_on_40", "note_on_52", "note_on_59", "time_shift_23", "note_off_59", "note_off_64", "note_off_69", "time_shift_7", "note_off_59", "time_shift_287", "note_on_64", "time_shift_183", "note_on_64", "time_shift_7", "note_on_60", "time_shift_391", "note_on_64", "time_shift_254", "note_off_64", "time_shift_3", "note_off_64", "note_off_64", "note_off_64", "time_shift_3", "note_on_61", "note_on_64", "time_shift_53", "note_off_40", "time_shift_3", "note_off_52", "note_on_40", "note_on_52", "note_on_59", "note_on_59", "time_shift_110", "note_off_35", "time_shift_131", "note_off_52", "time_shift_187", "note_off_59", "time_shift_7", "note_off_59", "time_shift_7", "note_off_64", "time_shift_32", "note_on_59", "note_on_62", "note_on_28", "note_off_59", "time_shift_23", "note_on_40", "note_on_52", "time_shift_1", "note_on_52", "time_shift_58", "note_off_52", "time_shift_21", "note_off_59", "time_shift_156", "note_on_64", "time_shift_29", "note_on_59", "time_shift_7", "time_shift_30", "note_off_59", "note_off_64", "note_on_59", "time_shift_7", "note_on_59", "note_on_74", "note_on_78", "time_shift_86", "note_off_52", "note_on_40", "note_on_56", "note_on_59", "note_on_59", "note_on_59", "note_on_64", "time_shift_46", "note_off_40", "time_shift_434", "time_shift_2", "time_shift_169", "note_off_64", "note_on_47", "time_shift_7", "note_off_59", "time_shift_7", "note_on_50", "time_shift_33", "note_off_59", "note_off_68", "time_shift_85", "note_on_56", "note_on_59", "note_on_64", "time_shift_376", "note_off_52", "note_off_67", "time_shift_7", "note_on_40", "note_on_59", "note_on_64", "time_shift_171", "note_off_64", "time_shift_3", "note_off_56", "note_off_59", "note_off_64", "time_shift_14", "note_off_52", "time_shift_3", "note_on_28", "note_on_52", "note_on_64", "time_shift_95", "note_off_40", "note_on_42", "time_shift_217", "note_off_64", "time_shift_27", "note_off_52", "note_off_52", "time_shift_185", "note_on_52", "note_on_57", "time_shift_31", "note_off_56", "note_off_57", "time_shift_37", "note_off_67", "note_off_71", "note_on_64", "time_shift_7", "note_off_64", "time_shift_29", "note_off_55", "time_shift_185", "note_on_64", "time_shift_3", "note_on_55", "note_on_55", "note_on_59", "note_on_64", "note_on_64", "note_on_36", "note_off_55", "time_shift_91", "note_off_52", "time_shift_14", "note_off_52", "note_off_59", "time_shift_18", "note_off_64", "time_shift_19", "note_off_64", "note_off_83", "time_shift_9", "note_off_52", "note_off_52", "time_shift_14", "note_off_64", "time_shift_19", "note_off_28", "time_shift_7", "note_on_64", "time_shift_4", "note_on_64", "time_shift_211", "note_off_64", "time_shift_14", "note_off_64", "time_shift_9", "note_on_52", "note_on_64", "time_shift_7", "note_off_64", "time_shift_142", "note_on_64", "time_shift_7", "note_on_52", "note_on_64", "time_shift_7", "note_on_52", "time_shift_217", "note_off_52", "time_shift_20", "note_off_64", "time_shift_7", "note_off_71", "time_shift_3", "note_off_69", "time_shift_7", "note_on_36", "note_on_48", "note_on_60", "note_on_67", "note_on_70", "time_shift_94", "note_off_74", "time_shift_7", "note_on_64", "time_shift_7", "note_on_52", "time_shift_7", "note_off_52", "time_shift_100", "note_off_64", "note_off_67", "time_shift_7", "note_off_48", "time_shift_58", "note_off_72", "time_shift_44", "note_off_72", "time_shift_52", "note_on_76", "time_shift_79", "note_on_28", "note_on_52", "note_on_58", "time_shift_7", "note_on_62", "note_on_67", "note_on_74", "time_shift_3", "note_on_74", "time_shift_3", "note_on_59", "time_shift_69", "note_off_62", "time_shift_3", "note_on_43", "note_on_55", "time_shift_17", "note_off_64", "time_shift_18", "note_off_59", "note_off_56", "time_shift_37", "note_on_62", "time_shift_7", "note_on_31", "note_on_68", "time_shift_36", "note_on_41", "time_shift_7", "note_off_55", "time_shift_31", "note_off_62", "time_shift_2", "note_on_59", "note_on_71", "time_shift_7", "note_on_55", "time_shift_210", "note_on_67", "time_shift_112", "note_off_73", "time_shift_15", "note_off_59", "note_off_67", "time_shift_7", "note_on_64", "time_shift_9", "note_on_55", "note_on_59", "note_on_64", "time_shift_142", "note_off_55", "time_shift_62", "note_off_71", "time_shift_14", "note_off_62", "note_off_67", "time_shift_11", "note_off_47", "time_shift_145", "note_on_59", "note_on_62", "time_shift_75", "note_off_59", "time_shift_19", "note_on_55", "note_on_59", "note_on_59", "note_on_64", "time_shift_3", "note_on_64", "note_on_68", "time_shift_27", "note_off_48", "time_shift_334", "note_on_38", "time_shift_65", "note_off_50", "note_off_69", "time_shift_14", "note_off_71", "time_shift_22", "note_on_28", "note_on_64", "time_shift_326", "note_off_64", "time_shift_9", "note_off_52", "time_shift_6", "note_on_76", "time_shift_9", "note_on_64", "note_on_59", "note_on_59", "time_shift_20", "note_off_48", "time_shift_64", "note_off_59", "time_shift_30", "note_off_61", "time_shift_20", "note_off_59", "note_on_71", "time_shift_102", "note_off_64", "note_off_68", "time_shift_7", "note_off_52", "time_shift_74", "note_on_59", "note_on_59", "note_on_59", "note_on_59", "time_shift_7", "note_on_55", "note_on_61", "note_on_68", "time_shift_9", "note_on_57", "time_shift_302", "note_off_59", "time_shift_4", "note_off_59", "note_off_56", "time_shift_30", "note_on_59", "time_shift_17", "note_off_40", "note_off_39", "time_shift_104", "note_off_64", "note_off_66", "time_shift_131", "note_on_59", "time_shift_10", "note_on_64", "note_on_64", "note_on_68", "note_on_71", "time_shift_1", "note_on_56", "note_on_66", "time_shift_127", "note_off_40", "note_off_62", "note_off_68", "note_off_71", "note_off_68", "note_off_76", "note_off_76", "time_shift_140", "note_off_59", "time_shift_148", "note_on_37", "note_on_52", "note_on_64", "note_on_71", "note_on_71", "time_shift_28", "note_off_71", "time_shift_7", "note_off_44", "note_on_35", "note_on_59", "time_shift_2", "note_on_90", "note_off_62", "time_shift_16", "note_off_35", "time_shift_35", "note_off_59", "time_shift_177", "note_on_59", "time_shift_14", "note_on_61", "time_shift_7", "note_on_57", "time_shift_63", "note_off_59", "time_shift_15", "note_off_59", "note_off_61", "time_shift_14", "note_off_44", "note_off_64", "time_shift_37", "note_on_57", "note_on_59", "note_on_64", "time_shift_3", "note_on_61", "note_on_64", "time_shift_213", "note_off_57", "time_shift_85", "note_off_57", "note_off_59", "note_off_64", "time_shift_89", "note_off_69", "time_shift_88", "note_on_56", "note_on_64", "note_on_64", "time_shift_21", "note_on_56", "time_shift_7", "note_off_64", "note_on_64", "time_shift_3", "note_off_68", "time_shift_59", "note_off_56", "time_shift_3", "note_off_64", "time_shift_30", "note_off_64", "note_off_72", "time_shift_15", "note_on_64", "note_on_69", "time_shift_83", "note_off_52", "time_shift_120", "note_on_35", "note_on_59", "note_on_62", "note_on_66", "note_on_66", "note_on_67", "time_shift_91", "note_on_43", "time_shift_21", "note_off_42", "time_shift_12", "note_off_59", "time_shift_7", "note_off_64", "time_shift_7", "note_off_59", "time_shift_31", "note_off_59", "time_shift_20", "note_off_64", "time_shift_205", "note_off_49", "note_off_76", "note_on_45", "note_on_57", "note_on_66", "time_shift_7", "note_on_71", "time_shift_14", "note_off_57", "note_on_61", "note_on_66", "note_on_66", "time_shift_17", "note_on_66", "time_shift_317", "note_off_66", "time_shift_11", "note_on_66", "note_on_78", "time_shift_37", "note_off_61", "time_shift_29", "note_off_54", "time_shift_172", "note_off_35", "time_shift_52", "note_off_64", "note_on_66", "time_shift_107", "note_off_66", "time_shift_10", "note_off_66", "time_shift_19", "note_off_66", "time_shift_12", "note_off_78", "time_shift_22", "note_off_78", "time_shift_35", "note_off_66", "time_shift_14", "note_off_59", "time_shift_4", "note_on_40", "note_on_47", "note_on_54", "note_on_59", "note_on_66", "time_shift_107", "note_off_35", "time_shift_23", "note_off_59", "time_shift_14", "note_off_59", "time_shift_98", "note_on_54", "time_shift_29", "note_on_54", "time_shift_7", "note_off_47", "time_shift_7", "note_off_63", "note_off_63", "time_shift_3", "note_on_35", "note_on_59", "note_on_66", "note_on_74", "time_shift_7", "note_off_78", "time_shift_15", "note_off_81", "note_off_81", "time_shift_28", "note_off_40", "note_on_60", "time_shift_201", "note_off_59", "time_shift_30", "note_off_71", "time_shift_44", "note_on_39", "note_on_58", "note_on_64", "time_shift_22", "note_off_30", "time_shift_15", "note_off_58", "time_shift_7", "note_off_60", "time_shift_9", "note_off_35", "time_shift_155", "note_on_47", "note_on_71", "note_on_79", "time_shift_7", "note_on_72", "time_shift_7", "note_on_56", "time_shift_7", "note_on_68", "time_shift_19", "note_on_63", "time_shift_12", "note_off_63", "time_shift_7", "note_on_63", "time_shift_7", "note_off_47", "time_shift_7", "note_off_54", "time_shift_15", "note_off_68", "time_shift_9", "note_off_71", "time_shift_7", "note_off_63", "time_shift_10", "note_on_59", "time_shift_3", "note_on_40", "note_on_59", "note_on_63", "note_on_65", "time_shift_7", "note_on_59", "time_shift_20", "note_off_71", "time_shift_7", "note_on_43", "time_shift_429", "note_off_59", "note_off_67", "time_shift_7", "note_off_63", "time_shift_18", "note_on_57", "time_shift_7", "note_off_59", "time_shift_305", "note_off_52", "time_shift_200", "note_on_56", "note_on_59", "note_on_63", "time_shift_11", "note_on_56", "time_shift_15", "note_off_78", "time_shift_7", "note_off_57", "time_shift_66", "note_on_56", "note_on_59", "note_on_67", "time_shift_86", "note_off_59", "time_shift_7", "note_on_59", "time_shift_18", "note_on_28", "note_on_28", "note_on_66", "time_shift_7", "note_off_63", "time_shift_43", "note_off_28", "time_shift_18", "note_off_86", "time_shift_11", "note_on_32", "note_on_56", "note_on_68", "note_on_67", "time_shift_7", "note_on_68", "time_shift_14", "note_off_56", "time_shift_404", "note_off_68", "time_shift_7", "note_on_59", "time_shift_169", "note_off_71", "time_shift_168", "note_off_63", "time_shift_263", "note_on_56", "time_shift_14", "note_on_68", "time_shift_7", "note_on_81", "time_shift_46", "note_off_56", "time_shift_1", "note_off_59", "time_shift_7", "note_off_56", "time_shift_3", "note_off_32", "time_shift_5", "note_on_63", "time_shift_7", "note_on_59", "time_shift_19", "note_off_56", "time_shift_84", "note_off_59", "time_shift_15", "note_off_62", "time_shift_23", "note_on_59", "note_on_72", "time_shift_30", "note_off_59", "time_shift_1", "note_off_63", "time_shift_3", "note_off_71", "time_shift_14", "note_off_59", "time_shift_7", "note_off_56", "time_shift_11", "note_on_56", "time_shift_7", "note_on_59", "time_shift_12", "note_on_59", "time_shift_11", "note_off_66", "time_shift_3", "note_off_56", "note_off_59", "time_shift_7", "note_off_76", "time_shift_182", "note_on_56", "note_on_71", "time_shift_7", "note_on_56", "time_shift_7", "note_off_59", "time_shift_54", "note_off_80", "time_shift_7", "note_on_56", "time_shift_7", "note_off_56", "time_shift_132", "note_off_60", "time_shift_105", "note_off_32", "note_off_56", "time_shift_7", "note_off_44", "time_shift_50", "note_on_32", "note_on_56", "note_on_59", "note_on_59", "note_on_68", "note_on_79", "time_shift_11", "note_on_40", "time_shift_122", "note_off_64", "time_shift_68", "note_off_64", "note_off_68", "time_shift_10", "note_off_74", "time_shift_7", "note_off_28", "time_shift_7", "note_off_56", "note_on_56", "time_shift_93", "note_off_40", "time_shift_14", "note_on_56", "note_on_77", "time_shift_3", "note_on_60", "time_shift_2", "note_on_60", "time_shift_41", "note_off_60", "time_shift_49", "note_on_56", "note_on_62", "time_shift_7", "note_off_63", "time_shift_23", "note_off_44", "time_shift_176", "note_off_56", "time_shift_17", "note_off_56", "time_shift_7", "note_off_68", "time_shift_18", "note_off_60", "time_shift_7", "note_off_56", "time_shift_86", "note_off_64", "note_off_65", "note_off_72", "note_off_76", "time_shift_7", "note_on_45", "time_shift_3", "note_on_54", "time_shift_1", "note_on_61", "note_on_64", "note_on_66", "note_on_68", "note_on_73", "time_shift_384", "note_on_61", "note_on_64", "note_on_68", "note_on_73", "time_shift_15", "note_on_68", "time_shift_95", "note_off_37", "time_shift_14", "note_off_68", "time_shift_7", "note_off_68", "time_shift_213", "note_on_49", "time_shift_22", "note_off_68", "time_shift_23", "note_off_73", "time_shift_3", "note_off_69", "note_on_48", "note_on_52", "note_on_59", "note_on_59", "note_on_59", "note_on_62", "note_on_64", "time_shift_3", "note_off_59", "time_shift_122", "note_off_65", "time_shift_23", "note_off_74", "time_shift_11", "note_off_59", "time_shift_48", "note_on_59", "note_on_69", "time_shift_17", "note_off_43", "time_shift_28", "note_off_59", "time_shift_29", "note_off_52", "time_shift_5", "note_on_52", "time_shift_13", "note_on_64", "time_shift_484", "note_off_49", "time_shift_29", "note_off_59", "note_off_64", "time_shift_22", "note_on_52", "time_shift_30", "note_off_55", "time_shift_59", "note_on_59", "time_shift_7", "note_off_59", "time_shift_189", "note_off_52", "time_shift_24", "note_off_37", "time_shift_29", "note_off_57", "note_off_73", "note_on_53", "note_on_57", "time_shift_10", "note_on_53", "note_on_57", "time_shift_4", "note_on_60", "note_on_65", "time_shift_3", "note_on_41", "note_on_53", "time_shift_7", "note_off_63", "time_shift_80", "note_off_53", "note_off_52", "time_shift_11", "note_on_41", "time_shift_146", "note_off_41", "time_shift_63", "note_on_41", "note_on_41", "note_on_65", "time_shift_322", "note_off_52", "time_shift_33", "note_off_65", "time_shift_1", "note_off_53", "time_shift_7", "note_off_41", "time_shift_12", "note_off_57", "note_off_63", "note_off_69", "time_shift_1", "note_on_29", "note_on_41", "note_on_56", "note_on_60", "note_on_60", "note_on_64", "note_on_67", "note_on_86", "note_on_89", "time_shift_17", "note_off_60", "time_shift_63", "note_off_53", "time_shift_10", "note_off_65", "note_on_63", "time_shift_35", "note_off_41", "time_shift_20", "note_off_60", "note_off_65"]